<?xml version="1.0" encoding="UTF-8" standalone="no"?>
<svg
   version="1.1"
   id="svg770"
   sodipodi:docname="enemies.svg"
   inkscape:version="1.1.1 (3bf5ae0d25, 2021-09-20)"
   width="384"
   height="576"
   inkscape:export-filename="/media/jmtstorres/Dados/Projetos/Jogos/CrowdBattler/assets/enemies.png"
   inkscape:export-xdpi="96"
   inkscape:export-ydpi="96"
   xmlns:inkscape="http://www.inkscape.org/namespaces/inkscape"
   xmlns:sodipodi="http://sodipodi.sourceforge.net/DTD/sodipodi-0.dtd"
   xmlns="http://www.w3.org/2000/svg"
   xmlns:svg="http://www.w3.org/2000/svg">
  <sodipodi:namedview
     id="namedview772"
     pagecolor="#ffffff"
     bordercolor="#666666"
     borderopacity="1.0"
     inkscape:pageshadow="2"
     inkscape:pageopacity="0.0"
     inkscape:pagecheckerboard="0"
     showgrid="true"
     inkscape:snap-others="true"
     inkscape:object-nodes="false"
     inkscape:snap-nodes="false"
     inkscape:snap-bbox="true"
     inkscape:bbox-nodes="true"
     inkscape:snap-object-midpoints="true"
     inkscape:snap-bbox-edge-midpoints="true"
     inkscape:snap-global="true"
     inkscape:zoom="1"
     inkscape:cx="185"
     inkscape:cy="300.5"
     inkscape:window-width="1640"
     inkscape:window-height="1017"
     inkscape:window-x="40"
     inkscape:window-y="0"
     inkscape:window-maximized="1"
     inkscape:current-layer="svg770"
     inkscape:snap-page="true"
     inkscape:snap-center="true">
    <inkscape:grid
       type="xygrid"
       id="grid1589"
       spacingx="64"
       spacingy="64" />
  </sodipodi:namedview>
  <defs
     id="defs2" />
  <rect
     style="fill:none;stroke-width:10.7011;stroke-linecap:round;stroke-linejoin:round;stroke-dashoffset:98.5"
     id="rect1008"
     width="384"
     height="576"
     x="-2.8421709e-14"
     y="-3.1086245e-15"
     inkscape:export-filename="/media/jmtstorres/Dados/Projetos/Jogos/CrowdBattler/assets/enemies.png"
     inkscape:export-xdpi="96"
     inkscape:export-ydpi="96" />
  <g
     id="g4140"
     transform="matrix(-0.86604691,0,0,1,123.2841,294.59143)"
     inkscape:export-filename="/media/jmtstorres/Dados/Projetos/Jogos/CrowdBattler/assets/enemies.png"
     inkscape:export-xdpi="96"
     inkscape:export-ydpi="96">
    <g
       id="g4045">
      <path
         stroke="none"
         fill="#646464"
         d="m 72.303976,-218.39187 16.102742,3.40242 q 4.600783,1.79572 6.547269,6.37953 l 5.485553,11.15236 q 0.5751,2.032 0,3.87498 -1.282913,2.31553 -3.981451,2.22102 -2.167676,-0.0945 -3.317872,-2.4573 -5.441312,-8.60056 -19.155187,-9.45116 2.344631,-7.74995 -1.681054,-15.12185"
         id="path536"
         style="stroke-width:0.914443" />
      <path
         stroke="none"
         fill="#585858"
         d="m 107.03104,-199.017 3.14092,-0.23628 0.48663,0.0945 0.39814,0.0945 h 0.17695 l 0.84053,0.18902 q 2.34463,0.66158 4.20264,1.70121 l 2.74278,1.93748 q 3.27363,2.88261 2.69853,5.95423 l -0.48662,1.55944 -0.61934,0.80335 -7.43203,11.19962 q -1.23867,1.89023 -3.00821,0.61433 l -13.448441,-6.85209 -1.194434,-0.51982 -0.929005,-0.61432 q -3.008204,-2.22102 -3.671779,-6.00148 -0.752051,-3.78047 1.371387,-7.04112 0.707813,-1.18139 1.681056,-1.98474 1.548341,-1.32316 3.583303,-1.79572 l 0.176953,-0.0473 v -0.0473 l 0.353906,-0.0473 h 0.486622 l 0.176953,-0.0473 0.929004,0.0473 q 2.565825,-0.0945 4.733495,0.51982 l 2.03497,0.80335 0.57509,-0.28354"
         id="path538"
         style="stroke-width:0.914443" />
      <path
         stroke="none"
         fill="#414141"
         d="m 101.54549,-191.31431 q 0,1.08689 -0.79628,1.93749 -0.752057,0.80335 -1.813776,0.80335 -1.061718,0 -1.81377,-0.80335 -0.79629,-0.8506 -0.79629,-1.93749 0,-1.18139 0.79629,-1.98474 0.752051,-0.80335 1.81377,-0.80335 1.061719,0 1.813776,0.80335 0.79628,0.80335 0.79628,1.98474"
         id="path540"
         style="stroke-width:0.914443" />
      <path
         stroke="none"
         fill="#e5e5e5"
         d="m 94.555842,-181.81589 q -0.752051,1.13413 -1.459864,0 l -1.238673,-4.30028 q -0.176953,-0.99237 0.840529,-1.27591 h 2.388868 q 1.017482,0.23628 0.619337,1.41768 l -1.150196,4.15851"
         id="path542"
         style="stroke-width:0.914443" />
      <path
         stroke="none"
         fill="#6d6d6d"
         d="m 133.8837,-218.01382 q -4.02569,7.3719 -1.68106,15.12185 -13.71387,0.8506 -19.15519,9.45115 -1.15019,2.36279 -3.31787,2.4573 -2.69854,0.0945 -3.98145,-2.22102 -0.57509,-1.84297 0,-3.87497 l 5.48555,-11.15237 q 1.94649,-4.58381 6.54727,-6.37953 l 16.10275,-3.40241"
         id="path544"
         style="stroke-width:0.914443" />
    </g>
  </g>
  <g
     id="g4132"
     transform="matrix(-0.86604691,0,0,1,248.46908,294.59142)"
     inkscape:export-filename="/media/jmtstorres/Dados/Projetos/Jogos/CrowdBattler/assets/enemies.png"
     inkscape:export-xdpi="96"
     inkscape:export-ydpi="96">
    <path
       stroke="none"
       fill="#646464"
       d="m 168.96468,-192.59021 q -1.94649,1.13414 -4.02569,-0.33079 -8.75918,-4.53656 -21.01319,2.032 -1.59258,-7.93898 -8.538,-12.192 l 15.52765,-5.67069 q 4.82197,-0.89786 8.62647,2.032 l 9.99785,6.75758 q 1.45987,1.46492 1.81377,3.35516 -0.0442,2.69358 -2.38886,4.01674"
       id="path546"
       style="stroke-width:0.914443" />
    <path
       stroke="none"
       fill="#585858"
       d="m 181.43988,-199.15877 0.39814,0.0945 h 0.17696 l 0.84052,0.18902 q 2.34463,0.66158 4.20264,1.70121 1.54834,0.8506 2.74278,1.93748 3.27363,2.88261 2.69853,5.95423 l -0.48662,1.55944 -0.61933,0.80335 -7.43204,11.19962 q -1.23867,1.89023 -3.0082,0.61433 l -13.44845,-6.85209 -1.19443,-0.51982 -0.92901,-0.61432 q -3.0082,-2.22102 -3.67178,-6.00148 -0.75205,-3.78047 1.37139,-7.04112 0.70781,-1.18139 1.68106,-1.98474 1.54834,-1.32316 3.5833,-1.79572 l 0.17695,-0.0473 v -0.0473 l 0.35391,-0.0473 h 0.48662 l 0.17695,-0.0473 0.92901,0.0473 4.7335,0.51982 q 1.06172,0.28353 2.03496,0.80335 0.26543,-0.18903 0.5751,-0.28354 l 3.14092,-0.23628 0.48662,0.0945"
       id="path548"
       style="stroke-width:0.914443" />
    <path
       stroke="none"
       fill="#414141"
       d="m 172.32679,-191.31431 q 0,1.08689 -0.79629,1.93749 -0.75205,0.80335 -1.81377,0.80335 -1.06172,0 -1.81377,-0.80335 -0.79629,-0.8506 -0.79629,-1.93749 0,-1.18139 0.79629,-1.98474 0.75205,-0.80335 1.81377,-0.80335 1.06172,0 1.81377,0.80335 0.79629,0.80335 0.79629,1.98474"
       id="path550"
       style="stroke-width:0.914443" />
    <path
       stroke="none"
       fill="#e5e5e5"
       d="m 166.48733,-185.9744 -1.1502,4.15851 q -0.75205,1.13413 -1.45986,0 l -1.23867,-4.30028 q -0.17695,-0.99237 0.84053,-1.27591 h 2.38886 q 1.01749,0.23628 0.61934,1.41768"
       id="path552"
       style="stroke-width:0.914443" />
    <path
       stroke="none"
       fill="#6d6d6d"
       d="m 178.52015,-191.92863 q -2.34463,-1.37042 -2.38887,-4.01674 0.35391,-1.93749 1.81377,-3.35516 l 9.99786,-6.75758 q 3.80449,-2.92986 8.62647,-2.032 l 15.52764,5.67069 q -6.94541,4.20577 -8.53799,12.192 -12.25401,-6.56856 -21.01319,-2.07926 -2.0792,1.46493 -4.02569,0.37805"
       id="path554"
       style="stroke-width:0.914443" />
  </g>
  <g
     id="g4156"
     transform="matrix(-1,0,0,1,284.70424,285.57558)"
     inkscape:export-filename="/media/jmtstorres/Dados/Projetos/Jogos/CrowdBattler/assets/enemies.png"
     inkscape:export-xdpi="96"
     inkscape:export-ydpi="96">
    <path
       stroke="none"
       fill="#f5f5f5"
       d="m 186.57152,-152.98987 q -0.0442,-2.12651 2.12344,-2.74083 2.12344,0 4.37959,1.41767 5.61827,3.82772 4.82198,16.82306 -5.08741,2.17376 -10.13057,-0.61433 3.89297,-8.2225 -1.19444,-14.88557"
       id="path592"
       style="stroke-width:0.914443" />
    <path
       stroke="none"
       fill="#f5f5f5"
       d="m 180.33392,-154.31303 q 2.21192,-1.41767 4.33535,-1.41767 2.21192,0.61432 2.12344,2.74083 -5.0874,6.66307 -1.19443,14.88557 -5.04317,2.78809 -10.08633,0.61433 -0.84053,-12.99534 4.82197,-16.82306"
       id="path594"
       style="stroke-width:0.914443" />
    <path
       stroke="none"
       fill="#e98af4"
       d="m 172.19407,-117.59529 q -5.48555,-13.75143 1.90225,-27.55012 h 25.26007 q 7.3878,13.79869 1.90225,27.55012 -2.61006,7.46642 7.56475,13.27888 v 2.74083 h -44.23831 v -2.74083 q 10.21905,-5.81246 7.60899,-13.27888"
       id="path596"
       style="stroke-width:0.914443" />
    <path
       stroke="none"
       fill="#ba6ec3"
       d="m 182.72279,-131.53574 q -0.92901,0.99237 -2.25615,0.99237 -1.32715,0 -2.25616,-0.99237 -0.97324,-1.03963 -0.97324,-2.41005 0,-1.41767 0.97324,-2.4573 0.92901,-0.99237 2.25616,-0.99237 1.32714,0 2.25615,0.99237 0.97324,1.03963 0.97324,2.4573 0,1.37042 -0.97324,2.41005"
       id="path598"
       style="stroke-width:0.914443" />
    <path
       stroke="none"
       fill="#ba6ec3"
       d="m 195.10951,-131.53574 q -0.929,0.99237 -2.25615,0.99237 -1.32715,0 -2.25615,-0.99237 -0.97325,-1.03963 -0.97325,-2.41005 0,-1.41767 0.97325,-2.4573 0.929,-0.99237 2.25615,-0.99237 1.32715,0 2.25615,0.99237 0.97325,1.03963 0.97325,2.4573 0,1.37042 -0.97325,2.41005"
       id="path600"
       style="stroke-width:0.914443" />
    <path
       stroke="none"
       fill="#eda9f5"
       d="m 185.5098,-108.85297 q -0.70781,-0.75609 -0.70781,-1.79572 0,-1.03962 0.70781,-1.79572 0.70781,-0.75609 1.68106,-0.75609 0.97324,0 1.68105,0.75609 0.70782,0.7561 0.70782,1.79572 0,1.03963 -0.70782,1.79572 -0.70781,0.7561 -1.68105,0.7561 -0.97325,0 -1.68106,-0.7561 m -7.83018,-7.84446 q 0.92901,-0.99237 2.25616,-0.99237 1.32714,0 2.30039,0.99237 0.929,1.03963 0.929,2.4573 0,1.41768 -0.929,2.41005 -0.97325,1.03963 -2.30039,1.03963 -1.32715,0 -2.25616,-1.03963 -0.97324,-0.99237 -0.97324,-2.41005 0,-1.41767 0.97324,-2.4573"
       id="path602"
       style="stroke-width:0.914443" />
  </g>
  <g
     id="g4148"
     transform="matrix(-1,0,0,1,158.7706,285.57558)"
     inkscape:export-filename="/media/jmtstorres/Dados/Projetos/Jogos/CrowdBattler/assets/enemies.png"
     inkscape:export-xdpi="96"
     inkscape:export-ydpi="96">
    <path
       stroke="none"
       fill="#f5f5f5"
       d="m 116.4538,-154.4548 q 0.79629,8.5533 8.98038,11.4359 -1.68106,5.76521 -6.72422,8.08074 -9.15733,-8.60055 -7.69747,-15.54715 0.5751,-2.69358 2.12344,-4.30028 1.94649,-1.22865 3.31787,0.33079"
       id="path604"
       style="stroke-width:0.914443" />
    <path
       stroke="none"
       fill="#f5f5f5"
       d="m 124.10703,-143.0189 q 8.18409,-2.8826 8.98038,-11.4359 1.37139,-1.55944 3.31787,-0.33079 1.54834,1.6067 2.12344,4.30028 1.45987,6.9466 -7.69746,15.54715 -5.04317,-2.31553 -6.72423,-8.08074"
       id="path606"
       style="stroke-width:0.914443" />
    <path
       stroke="none"
       fill="#e98af4"
       d="m 112.16269,-145.14541 h 25.26007 q 7.3878,13.79869 1.90225,27.55012 -2.61006,7.46642 7.56475,13.27888 v 2.74083 h -44.23831 v -2.74083 q 10.21905,-5.81246 7.60899,-13.27888 -5.48555,-13.75143 1.90225,-27.55012"
       id="path608"
       style="stroke-width:0.914443" />
    <path
       stroke="none"
       fill="#ba6ec3"
       d="m 120.78916,-131.53574 q -0.92901,0.99237 -2.25616,0.99237 -1.32715,0 -2.25615,-0.99237 -0.97324,-1.03963 -0.97324,-2.41005 0,-1.41767 0.97324,-2.4573 0.929,-0.99237 2.25615,-0.99237 1.32715,0 2.25616,0.99237 0.97324,1.03963 0.97324,2.4573 0,1.37042 -0.97324,2.41005"
       id="path610"
       style="stroke-width:0.914443" />
    <path
       stroke="none"
       fill="#ba6ec3"
       d="m 133.17589,-131.53574 q -0.92901,0.99237 -2.25616,0.99237 -1.32715,0 -2.25615,-0.99237 -0.97325,-1.03963 -0.97325,-2.41005 0,-1.41767 0.97325,-2.4573 0.929,-0.99237 2.25615,-0.99237 1.32715,0 2.25616,0.99237 0.97324,1.03963 0.97324,2.4573 0,1.37042 -0.97324,2.41005"
       id="path612"
       style="stroke-width:0.914443" />
    <path
       stroke="none"
       fill="#eda9f5"
       d="m 123.57617,-112.44441 q 0.70781,-0.75609 1.68106,-0.75609 0.97324,0 1.68105,0.75609 0.70781,0.7561 0.70781,1.79572 0,1.03963 -0.70781,1.79572 -0.70781,0.7561 -1.68105,0.7561 -0.97325,0 -1.68106,-0.7561 -0.70781,-0.75609 -0.70781,-1.79572 0,-1.03962 0.70781,-1.79572 m -7.83018,-4.25302 q 0.929,-0.99237 2.25615,-0.99237 1.32715,0 2.3004,0.99237 0.929,1.03963 0.929,2.4573 0,1.41768 -0.929,2.41005 -0.97325,1.03963 -2.3004,1.03963 -1.32715,0 -2.25615,-1.03963 -0.97324,-0.99237 -0.97324,-2.41005 0,-1.41767 0.97324,-2.4573"
       id="path614"
       style="stroke-width:0.914443" />
  </g>
  <g
     id="g4166"
     transform="matrix(-1,0,0,1,158.19551,291.87627)"
     inkscape:export-filename="/media/jmtstorres/Dados/Projetos/Jogos/CrowdBattler/assets/enemies.png"
     inkscape:export-xdpi="96"
     inkscape:export-ydpi="96">
    <path
       stroke="none"
       fill="#80be1f"
       d="m 102.12059,-43.87627 q -2.698534,-0.0472 -2.963963,-1.79572 -0.04424,-0.89786 2.344633,-1.7012 l 4.37959,-1.22866 -4.33536,-11.05785 q -1.45986,-5.05637 2.47735,-4.34753 l 16.89903,6.89934 -0.66357,4.4893 -8.84766,-1.18139 1.15019,6.56855 q 0.44239,2.97712 -2.47734,3.35516 h -7.9629"
       id="path708"
       style="stroke-width:0.914443" />
    <path
       stroke="none"
       fill="#80be1f"
       d="m 135.83019,-47.23143 1.15019,-6.56855 -8.84766,1.18139 -0.66358,-4.4893 16.89904,-6.89934 q 3.93721,-0.70884 2.47734,4.34753 l -4.33535,11.05785 4.37959,1.22866 q 2.38887,0.80334 2.34463,1.7012 -0.26543,1.74847 -2.96396,1.79572 h -7.9629 q -2.91973,-0.37804 -2.47734,-3.35516"
       id="path710"
       style="stroke-width:0.914443" />
    <path
       stroke="none"
       fill="#80be1f"
       d="m 119.63896,-63.01486 q 0.92901,0.99237 0.92901,2.36279 v 13.4679 q 0,1.37042 -0.92901,2.31553 -0.88476,0.99237 -2.16768,0.99237 -1.28291,0 -2.21191,-0.99237 -0.88477,-0.94511 -0.88477,-2.31553 v -13.4679 q 0,-1.37042 0.88477,-2.36279 0.929,-0.94511 2.21191,-0.94511 1.28292,0 2.16768,0.94511"
       id="path712"
       style="stroke-width:0.914443" />
    <path
       stroke="none"
       fill="#80be1f"
       d="m 123.22226,-47.18417 v -13.4679 q 0,-1.37042 0.88477,-2.36279 0.929,-0.94511 2.21192,-0.94511 1.28291,0 2.16767,0.94511 0.92901,0.99237 0.92901,2.36279 v 13.4679 q 0,1.37042 -0.92901,2.31553 -0.88476,0.99237 -2.16767,0.99237 -1.28292,0 -2.21192,-0.99237 -0.88477,-0.94511 -0.88477,-2.31553"
       id="path714"
       style="stroke-width:0.914443" />
    <path
       stroke="none"
       fill="#80be1f"
       d="m 113.18017,-50.35031 -0.66358,-0.4253 -0.57509,-0.33079 -0.75205,-0.47256 q -4.02569,-2.69358 -4.82198,-8.36427 -0.88477,-5.95423 2.16768,-11.62493 3.05244,-5.71794 8.3168,-7.84445 1.99072,-0.7561 3.80449,-0.89786 2.83125,-0.23628 5.39708,1.18139 l 0.75205,0.47256 0.57509,0.33079 0.2212,0.18902 1.23867,0.85061 q 3.45059,2.4573 5.83946,5.57618 1.85801,2.4573 3.09668,5.19813 3.31787,7.41916 0.22119,13.08986 -2.25615,4.20576 -6.98965,5.67069 l -2.56583,-10.15999 q -0.84052,-3.40242 -3.84873,-5.19814 -2.91973,-1.79572 -6.2376,-0.8506 l -0.0442,0.0472 q -3.27363,0.94512 -5.04317,4.064 -1.68105,3.11888 -0.84052,6.5213 l 0.75205,2.97711"
       id="path716"
       style="stroke-width:0.914443" />
    <path
       stroke="none"
       fill="#73ad19"
       d="m 113.18017,-50.35031 -0.75205,-2.97711 q -0.84053,-3.40242 0.84053,-6.5213 1.76953,-3.11888 5.04316,-4.064 l 0.0442,-0.0472 q 3.31788,-0.94512 6.2376,0.8506 3.00821,1.79572 3.84874,5.19814 l 2.56582,10.15999 -3.71602,0.66158 q -6.50303,0.56707 -12.96182,-2.74084 l -0.66358,-0.23627 -0.48662,-0.28354"
       id="path718"
       style="stroke-width:0.914443" />
    <path
       stroke="none"
       fill="#5f8c19"
       d="m 132.02569,-65.99197 q 0,1.37041 -0.97324,2.41004 -0.92901,0.99237 -2.25616,0.99237 -1.32715,0 -2.25615,-0.99237 -0.97325,-1.03963 -0.97325,-2.41004 0,-1.41768 0.97325,-2.4573 0.929,-0.99237 2.25615,-0.99237 1.32715,0 2.25616,0.99237 0.97324,1.03962 0.97324,2.4573"
       id="path720"
       style="stroke-width:0.914443" />
    <path
       stroke="none"
       fill="#5f8c19"
       d="m 112.20693,-62.58956 q -1.32715,0 -2.25616,-0.99237 -0.97324,-1.03963 -0.97324,-2.41004 0,-1.41768 0.97324,-2.4573 0.92901,-0.99237 2.25616,-0.99237 1.32715,0 2.25615,0.99237 0.97324,1.03962 0.97324,2.4573 0,1.37041 -0.97324,2.41004 -0.929,0.99237 -2.25615,0.99237"
       id="path722"
       style="stroke-width:0.914443" />
  </g>
  <g
     id="g4176"
     transform="matrix(-1,0,0,1,286.16483,284.07771)"
     inkscape:export-filename="/media/jmtstorres/Dados/Projetos/Jogos/CrowdBattler/assets/enemies.png"
     inkscape:export-xdpi="96"
     inkscape:export-ydpi="96">
    <path
       stroke="none"
       fill="#80be1f"
       d="m 196.127,-36.12632 q -1.50411,0.28354 -1.90225,-1.08688 l -2.87549,-11.95571 q -7.56475,0.4253 -12.60792,-8.03349 -5.97217,0 -10.52872,-6.56855 -2.96396,-4.30028 0.88477,-10.30176 2.56582,-4.11125 9.20157,-2.50456 7.7417,3.44967 6.63574,13.4679 3.45059,6.28502 9.90938,11.34139 1.68106,1.18139 3.18516,3.63869 l 2.74278,5.85972 q 1.15019,2.31553 -0.92901,3.87497 l -3.71601,2.26828"
       id="path724"
       style="stroke-width:0.914443" />
    <path
       stroke="none"
       fill="#80be1f"
       d="m 191.61469,-77.66415 q 7.7417,3.44967 6.63574,13.4679 3.45059,6.28502 9.90938,11.34138 1.68106,1.1814 3.18516,3.6387 l 2.74278,5.85972 q 1.15019,2.31553 -0.92901,3.87497 l -3.71601,2.26828 q -1.50411,0.28353 -1.90225,-1.08688 l -2.87549,-11.95572 q -7.56475,0.4253 -12.60792,-8.03348 -5.97217,0 -10.52872,-6.56855 -2.96396,-4.30028 0.88477,-10.30176 2.56582,-4.11126 9.20157,-2.50456"
       id="path726"
       style="stroke-width:0.914443" />
    <path
       stroke="none"
       fill="#80be1f"
       d="m 170.42454,-71.04834 q 1.23867,-0.28354 2.38887,0.37804 1.10596,0.70884 1.41562,1.98475 0.35391,1.32316 -0.30966,2.55181 l -6.28184,11.62492 q -0.66358,1.1814 -1.90225,1.55944 -1.19443,0.37805 -2.30039,-0.33079 -1.1502,-0.66158 -1.5041,-2.032 -0.30967,-1.32316 0.3539,-2.50455 l 6.28184,-11.62492 q 0.66358,-1.22866 1.85801,-1.6067"
       id="path728"
       style="stroke-width:0.914443" />
    <path
       stroke="none"
       fill="#80be1f"
       d="m 171.08811,-48.55459 q -1.10595,-0.66158 -1.5041,-2.032 -0.30967,-1.32316 0.35391,-2.50455 l 6.28184,-11.62493 q 0.66357,-1.22865 1.85801,-1.60669 1.28291,-0.28354 2.38887,0.37804 1.10595,0.70884 1.41562,1.98475 0.35391,1.32316 -0.30967,2.55181 l -6.28184,11.62492 q -0.66357,1.18139 -1.90224,1.55944 -1.19444,0.37805 -2.3004,-0.33079"
       id="path730"
       style="stroke-width:0.914443" />
    <path
       stroke="none"
       fill="#80be1f"
       d="m 168.96468,-56.021 -0.66358,-0.4253 -0.5751,-0.3308 -0.75205,-0.47255 q -4.02568,-2.69358 -4.82197,-8.36428 -0.88477,-5.95423 2.16767,-11.62492 3.05245,-5.71795 8.31681,-7.84446 1.99072,-0.75609 3.80449,-0.89786 2.83125,-0.23628 5.39707,1.1814 l 0.75205,0.47255 0.5751,0.33079 0.22119,0.18903 q 0.66358,0.33079 1.23868,0.8506 3.45058,2.4573 5.83945,5.57618 1.85801,2.4573 3.09668,5.19814 3.31788,7.41916 0.2212,13.08985 -2.25616,4.20577 -6.98966,5.6707 l -2.56582,-10.16 q -0.84053,-3.40241 -3.84873,-5.19813 -2.91973,-1.79572 -6.2376,-0.85061 l -0.0442,0.0473 q -3.27364,0.94511 -5.04317,4.06399 -1.68105,3.11889 -0.84053,6.5213 l 0.75206,2.97712"
       id="path732"
       style="stroke-width:0.914443" />
    <path
       stroke="none"
       fill="#73ad19"
       d="m 168.96468,-56.021 -0.75206,-2.97712 q -0.84052,-3.40241 0.84053,-6.5213 1.76953,-3.11888 5.04317,-4.06399 l 0.0442,-0.0473 q 3.31787,-0.94511 6.2376,0.85061 3.0082,1.79572 3.84873,5.19813 l 2.56582,10.16 -3.71601,0.66158 q -6.50304,0.56707 -12.96183,-2.74084 l -0.66357,-0.23628 -0.48662,-0.28353"
       id="path734"
       style="stroke-width:0.914443" />
    <path
       stroke="none"
       fill="#5f8c19"
       d="m 186.83695,-74.11997 q 0.97324,1.03963 0.97324,2.4573 0,1.37042 -0.97324,2.41005 -0.929,0.99237 -2.25615,0.99237 -1.32715,0 -2.25616,-0.99237 -0.97324,-1.03963 -0.97324,-2.41005 0,-1.41767 0.97324,-2.4573 0.92901,-0.99237 2.25616,-0.99237 1.32715,0 2.25615,0.99237"
       id="path736"
       style="stroke-width:0.914443" />
    <path
       stroke="none"
       fill="#5f8c19"
       d="m 165.73528,-74.11997 q 0.929,-0.99237 2.25615,-0.99237 1.32715,0 2.25616,0.99237 0.97324,1.03963 0.97324,2.4573 0,1.37042 -0.97324,2.41005 -0.92901,0.99237 -2.25616,0.99237 -1.32715,0 -2.25615,-0.99237 -0.97324,-1.03963 -0.97324,-2.41005 0,-1.41767 0.97324,-2.4573"
       id="path738"
       style="stroke-width:0.914443" />
  </g>
  <g
     id="g3143"
     transform="matrix(-1,0,0,1,69.399603,-80.29304)"
     inkscape:export-filename="/media/jmtstorres/Dados/Projetos/Jogos/CrowdBattler/assets/enemies.png"
     inkscape:export-xdpi="96"
     inkscape:export-ydpi="96">
    <path
       stroke="none"
       fill="#a2e7ee"
       d="m 39.558002,127.31448 q 1.238673,-0.51981 2.433107,0 1.238673,0.66158 1.725294,1.98474 0.486621,1.32317 -0.08848,2.59907 -0.53086,1.32316 -1.769532,1.84298 l -2.477346,-0.0945 q -1.194434,-0.56707 -1.681054,-1.89024 -0.486623,-1.32316 0.04424,-2.69358 0.575098,-1.22865 1.813769,-1.74846 m 10.042096,1.51219 q 0.929004,0.37804 1.282911,1.37041 0.353907,0.99237 -0.04424,1.93749 -0.442382,0.94512 -1.327149,1.32316 l -1.813771,-0.0472 q -0.929004,-0.42531 -1.282909,-1.41768 -0.353908,-0.99237 0.04424,-1.89023 0.442382,-0.99237 1.371387,-1.37042 l 1.769532,0.0945"
       id="path656"
       style="stroke-width:0.914443" />
    <path
       stroke="none"
       fill="#8be1eb"
       d="m 49.600098,128.82667 -1.769532,-0.0945 q -0.929005,0.37805 -1.371387,1.37042 -0.398145,0.89786 -0.04424,1.89023 0.353905,0.99237 1.282909,1.41768 l 1.813771,0.0472 q 0.884767,-0.37804 1.327149,-1.32316 0.398145,-0.94512 0.04424,-1.93749 -0.353906,-0.99237 -1.28291,-1.37041 m -10.042096,-1.51219 q -1.238671,0.51981 -1.813769,1.74846 -0.53086,1.37042 -0.04424,2.69358 0.48662,1.32317 1.681054,1.89024 l 2.477346,0.0945 q 1.238672,-0.51982 1.769532,-1.84298 0.575097,-1.2759 0.08848,-2.59907 -0.486621,-1.32316 -1.725294,-1.98474 -1.194434,-0.51981 -2.433107,0 m -4.1584,-3.02437 q 10.17481,0 17.385654,2.50456 7.166605,2.4573 7.166605,6.00148 v 0.23628 q -0.796289,3.11888 -7.741703,3.26065 H 19.208382 q -7.608988,-0.4253 -8.36104,-3.26065 v -0.23628 q 0,-3.54418 7.166607,-6.00148 7.210844,-2.50456 17.385653,-2.50456 m -11.900104,3.82772 q -0.973242,1.03963 -0.973242,2.4573 0,1.37042 0.973242,2.41004 0.929004,0.99238 2.256153,0.99238 1.32715,0 2.256154,-0.99238 0.973242,-1.03962 0.973242,-2.41004 0,-1.41767 -0.973242,-2.4573 -0.929004,-0.99237 -2.256154,-0.99237 -1.327148,0 -2.256153,0.99237"
       id="path658"
       style="stroke-width:0.914443" />
    <path
       stroke="none"
       fill="#568a91"
       d="m 23.499498,128.11783 q 0.929004,-0.99237 2.256153,-0.99237 1.32715,0 2.256154,0.99237 0.973242,1.03963 0.973242,2.4573 0,1.37042 -0.973242,2.41004 -0.929004,0.99238 -2.256154,0.99238 -1.327148,0 -2.256153,-0.99238 -0.973242,-1.03962 -0.973242,-2.41004 0,-1.41767 0.973242,-2.4573"
       id="path660"
       style="stroke-width:0.914443" />
  </g>
  <g
     id="g3148"
     transform="matrix(-1,0,0,1,195.02356,-80.29308)"
     inkscape:export-filename="/media/jmtstorres/Dados/Projetos/Jogos/CrowdBattler/assets/enemies.png"
     inkscape:export-xdpi="96"
     inkscape:export-ydpi="96">
    <path
       stroke="none"
       fill="#8be1eb"
       d="m 75.78917,126.88918 q 0,-9.4039 6.19337,-16.01971 6.2376,-6.66307 15.04102,-6.66307 8.80343,0 15.04103,6.66307 6.19336,6.61581 6.19336,16.01971 v 0.66158 q -0.70781,8.41153 -6.67998,8.74232 H 83.04426 q -6.59151,-1.1814 -7.25509,-8.74232 v -0.66158 m 12.16554,-2.64633 q 0.97324,-1.03962 0.97324,-2.41004 0,-1.41767 -0.97324,-2.4573 -0.92901,-0.99237 -2.25616,-0.99237 -1.32714,0 -2.25615,0.99237 -0.97324,1.03963 -0.97324,2.4573 0,1.37042 0.97324,2.41004 0.92901,0.99238 2.25615,0.99238 1.32715,0 2.25616,-0.99238 m 14.2005,-12.90082 q -0.97324,-0.99238 -2.30039,-0.99238 -1.32716,0 -2.25616,0.99238 -0.97324,1.03962 -0.97324,2.4573 0,1.41767 0.97324,2.41004 0.929,1.03963 2.25616,1.03963 1.32715,0 2.30039,-1.03963 0.929,-0.99237 0.929,-2.41004 0,-1.41768 -0.929,-2.4573 m 3.27363,4.25302 q -0.70781,0.75609 -0.70781,1.79572 0,1.03962 0.70781,1.79572 0.70782,0.75609 1.68106,0.75609 0.97324,0 1.68105,-0.75609 0.70782,-0.7561 0.70782,-1.79572 0,-1.03963 -0.70782,-1.79572 -0.70781,-0.7561 -1.68105,-0.7561 -0.97324,0 -1.68106,0.7561"
       id="path662"
       style="stroke-width:0.914443" />
    <path
       stroke="none"
       fill="#568a91"
       d="m 87.95471,124.24285 q -0.92901,0.99238 -2.25616,0.99238 -1.32714,0 -2.25615,-0.99238 -0.97324,-1.03962 -0.97324,-2.41004 0,-1.41767 0.97324,-2.4573 0.92901,-0.99237 2.25615,-0.99237 1.32715,0 2.25616,0.99237 0.97324,1.03963 0.97324,2.4573 0,1.37042 -0.97324,2.41004"
       id="path664"
       style="stroke-width:0.914443" />
    <path
       stroke="none"
       fill="#a2e7ee"
       d="m 105.42884,115.59505 q 0.70782,-0.7561 1.68106,-0.7561 0.97324,0 1.68105,0.7561 0.70782,0.75609 0.70782,1.79572 0,1.03962 -0.70782,1.79572 -0.70781,0.75609 -1.68105,0.75609 -0.97324,0 -1.68106,-0.75609 -0.70781,-0.7561 -0.70781,-1.79572 0,-1.03963 0.70781,-1.79572 m -3.27363,-4.25302 q 0.929,1.03962 0.929,2.4573 0,1.41767 -0.929,2.41004 -0.97324,1.03963 -2.30039,1.03963 -1.32716,0 -2.25616,-1.03963 -0.97324,-0.99237 -0.97324,-2.41004 0,-1.41768 0.97324,-2.4573 0.929,-0.99238 2.25616,-0.99238 1.32715,0 2.30039,0.99238"
       id="path666"
       style="stroke-width:0.914443" />
  </g>
  <g
     id="g3153"
     transform="matrix(-1,0,0,1,321.11203,-80.29308)"
     inkscape:export-filename="/media/jmtstorres/Dados/Projetos/Jogos/CrowdBattler/assets/enemies.png"
     inkscape:export-xdpi="96"
     inkscape:export-ydpi="96">
    <path
       stroke="none"
       fill="#8be1eb"
       d="m 183.99607,128.63764 q -0.84052,7.3719 -7.83018,7.65544 h -33.44416 q -7.69746,-1.03963 -8.49375,-7.65544 v -0.56707 q 0,-8.2225 7.25508,-14.03496 7.29932,-5.81246 17.60685,-5.81246 10.35176,0 17.65108,5.81246 7.25508,5.81246 7.25508,14.03496 v 0.56707 m -41.8052,-6.80483 q 0,1.37042 0.97325,2.41004 0.929,0.99238 2.25615,0.99238 1.32715,0 2.25615,-0.99238 0.97325,-1.03962 0.97325,-2.41004 0,-1.41767 -0.97325,-2.4573 -0.929,-0.99237 -2.25615,-0.99237 -1.32715,0 -2.25615,0.99237 -0.97325,1.03963 -0.97325,2.4573 m 19.55334,-3.26065 q 0.929,1.03963 2.25615,1.03963 1.32715,0 2.30039,-1.03963 0.92901,-0.99237 0.92901,-2.41004 0,-1.41768 -0.92901,-2.4573 -0.97324,-0.99238 -2.30039,-0.99238 -1.32715,0 -2.25615,0.99238 -0.97325,1.03962 -0.97325,2.4573 0,1.41767 0.97325,2.41004 m 7.83018,-0.61432 q -0.70782,0.75609 -0.70782,1.79572 0,1.03962 0.70782,1.79572 0.70781,0.75609 1.68105,0.75609 0.97324,0 1.68106,-0.75609 0.70781,-0.7561 0.70781,-1.79572 0,-1.03963 -0.70781,-1.79572 -0.70782,-0.7561 -1.68106,-0.7561 -0.97324,0 -1.68105,0.7561"
       id="path668"
       style="stroke-width:0.914443" />
    <path
       stroke="none"
       fill="#568a91"
       d="m 142.19087,121.83281 q 0,-1.41767 0.97325,-2.4573 0.929,-0.99237 2.25615,-0.99237 1.32715,0 2.25615,0.99237 0.97325,1.03963 0.97325,2.4573 0,1.37042 -0.97325,2.41004 -0.929,0.99238 -2.25615,0.99238 -1.32715,0 -2.25615,-0.99238 -0.97325,-1.03962 -0.97325,-2.41004"
       id="path670"
       style="stroke-width:0.914443" />
    <path
       stroke="none"
       fill="#a2e7ee"
       d="m 169.57439,117.95784 q 0.70781,-0.7561 1.68105,-0.7561 0.97324,0 1.68106,0.7561 0.70781,0.75609 0.70781,1.79572 0,1.03962 -0.70781,1.79572 -0.70782,0.75609 -1.68106,0.75609 -0.97324,0 -1.68105,-0.75609 -0.70782,-0.7561 -0.70782,-1.79572 0,-1.03963 0.70782,-1.79572 m -7.83018,0.61432 q -0.97325,-0.99237 -0.97325,-2.41004 0,-1.41768 0.97325,-2.4573 0.929,-0.99238 2.25615,-0.99238 1.32715,0 2.30039,0.99238 0.92901,1.03962 0.92901,2.4573 0,1.41767 -0.92901,2.41004 -0.97324,1.03963 -2.30039,1.03963 -1.32715,0 -2.25615,-1.03963"
       id="path672"
       style="stroke-width:0.914443" />
  </g>
  <g
     id="g4185"
     transform="matrix(-1,0,0,1,158.61585,740.58401)"
     inkscape:export-filename="/media/jmtstorres/Dados/Projetos/Jogos/CrowdBattler/assets/enemies.png"
     inkscape:export-xdpi="96"
     inkscape:export-ydpi="96">
    <path
       stroke="none"
       fill="#dbdbdb"
       d="m 121.54121,-450.79581 q -0.17695,0.85061 -1.19444,1.51219 l -4.86621,2.97711 q -1.01748,0.61433 -1.94648,0.42531 -0.92901,-0.23628 -1.7253,-1.1814 v -0.0472 l -10.83838,-13.18442 q -0.88477,-1.13414 -1.282915,-2.07925 -0.884766,-2.17377 1.150195,-3.44967 l 7.03389,-4.39479 q 2.87549,-1.70121 5.17588,2.4573 l 8.09561,14.98008 q 0.5751,1.13414 0.39815,1.98474"
       id="path248"
       style="stroke-width:0.914443" />
    <path
       stroke="none"
       fill="#4f4f4f"
       d="m 129.90225,-446.77906 9.467,-5.85972 q 2.30039,-1.41767 3.62754,1.03963 l 5.52979,10.11273 q 1.32715,2.50456 -0.97324,3.92223 l -9.51124,5.85972 q -2.34463,1.46493 -3.67178,-1.03963 l -5.48555,-10.15999 q -1.32715,-2.4573 1.01748,-3.87497"
       id="path250"
       style="stroke-width:0.914443" />
    <path
       stroke="none"
       fill="#585858"
       d="m 121.49697,-457.88417 0.70781,0.14176 h 0.26543 l 1.32715,0.23628 q 3.71602,0.70884 6.72423,2.22103 2.12344,1.13413 3.98145,2.59906 4.46807,3.82772 4.5123,8.60056 -0.0442,4.67832 -4.55654,8.41152 -4.24688,3.54419 -10.39601,4.86735 l -0.5751,0.14177 -1.28291,0.18902 -0.70781,0.0473 -0.5751,0.0945 h -0.26543 q -5.0874,-0.18903 -8.62647,-4.01674 -3.80449,-4.064 -3.80449,-9.73469 -0.0442,-5.76521 3.80449,-9.82921 1.32715,-1.46493 3.00821,-2.4573 2.56582,-1.41767 5.61826,-1.51218 h 0.26543 v -0.0473 l 0.5751,0.0473"
       id="path252"
       style="stroke-width:0.914443" />
    <path
       stroke="none"
       fill="#414141"
       d="m 116.49804,-449.70892 q 1.32715,0 2.25616,0.99237 0.97324,1.03963 0.97324,2.4573 0,1.37042 -0.97324,2.41004 -0.92901,0.99238 -2.25616,0.99238 -1.32715,0 -2.25615,-0.99238 -0.97324,-1.03962 -0.97324,-2.41004 0,-1.41767 0.97324,-2.4573 0.929,-0.99237 2.25615,-0.99237"
       id="path254"
       style="stroke-width:0.914443" />
    <path
       stroke="none"
       fill="#585858"
       d="m 118.533,-436.28828 q 1.06172,1.18139 0.0442,2.31553 l -4.5123,4.77284 -0.44239,0.4253 q -0.929,0.51981 -1.72529,-0.37805 l -4.51231,-4.77283 q -1.10596,-1.22865 -0.0442,-2.36279 l 4.51231,-4.77283 q 1.10596,-1.22865 2.21191,0 l 4.46807,4.77283"
       id="path256"
       style="stroke-width:0.914443" />
    <path
       stroke="none"
       fill="#ffffff"
       d="m 135.43204,-447.53516 -0.0442,0.0473 q -0.75205,0.94511 -1.63681,1.18139 -0.97325,0.18903 -1.94649,-0.4253 l -4.91046,-2.97711 q -1.01748,-0.66158 -1.19443,-1.51219 -0.17695,-0.8506 0.39814,-1.98474 l 8.09562,-14.93283 q 2.25615,-4.20576 5.17588,-2.4573 l 7.07813,4.34753 q 1.99072,1.22865 1.10596,3.44968 l -1.28291,2.07925 -10.83839,13.18436"
       id="path258"
       style="stroke-width:0.914443" />
    <path
       stroke="none"
       fill="#dbdbdb"
       d="m 135.43204,-447.53516 10.83839,-13.18436 1.28291,-2.07925 1.37138,1.46492 q 2.34463,2.55182 -1.5041,5.29265 l -11.98858,8.50604"
       id="path260"
       style="stroke-width:0.914443" />
  </g>
  <g
     id="g4194"
     transform="matrix(-1,0,0,1,283.63912,740.58401)"
     inkscape:export-filename="/media/jmtstorres/Dados/Projetos/Jogos/CrowdBattler/assets/enemies.png"
     inkscape:export-xdpi="96"
     inkscape:export-ydpi="96">
    <path
       stroke="none"
       fill="#dbdbdb"
       d="m 182.23617,-451.45739 -2.83125,5.19814 q -0.5751,1.08688 -1.45987,1.41767 l -2.0792,-0.0945 v -0.0472 l -15.57188,-5.62344 q -1.28291,-0.51982 -2.0792,-1.08689 -1.76953,-1.41767 -0.61934,-3.63869 l 4.02569,-7.56093 q 1.68105,-2.97711 5.61826,-0.61432 l 14.06778,8.60055 q 1.01748,0.70884 1.28291,1.55944 0.2212,0.80335 -0.3539,1.89023"
       id="path262"
       style="stroke-width:0.914443" />
    <path
       stroke="none"
       fill="#4f4f4f"
       d="m 201.30288,-452.63878 q 2.30039,-1.41767 3.62754,1.03963 l 5.52979,10.11273 q 1.32715,2.50456 -0.97325,3.92223 l -9.51123,5.85972 q -2.34463,1.46493 -3.67178,-1.03963 l -5.48555,-10.15999 q -1.32715,-2.4573 1.01748,-3.87497 l 9.467,-5.85972"
       id="path264"
       style="stroke-width:0.914443" />
    <path
       stroke="none"
       fill="#585858"
       d="m 192.45522,-455.2851 q 2.12343,1.13413 3.98144,2.59906 4.46807,3.82772 4.51231,8.60056 -0.0442,4.67832 -4.55654,8.41152 -4.24688,3.54419 -10.39601,4.86735 l -0.57509,0.14177 -1.28292,0.18902 -0.70781,0.0473 -0.5751,0.0945 h -0.26543 q -5.0874,-0.18903 -8.62647,-4.01674 -3.80449,-4.064 -3.80449,-9.73469 -0.0442,-5.76521 3.80449,-9.82921 1.32715,-1.46493 3.00821,-2.4573 2.56582,-1.41767 5.61826,-1.51218 h 0.26543 v -0.0473 l 0.5751,0.0473 0.70781,0.14176 h 0.26543 l 1.32715,0.23628 q 3.71602,0.70884 6.72423,2.22103"
       id="path266"
       style="stroke-width:0.914443" />
    <path
       stroke="none"
       fill="#414141"
       d="m 178.43167,-449.70892 q 1.32715,0 2.25616,0.99237 0.97324,1.03963 0.97324,2.4573 0,1.37042 -0.97324,2.41004 -0.92901,0.99238 -2.25616,0.99238 -1.32715,0 -2.25615,-0.99238 -0.97324,-1.03962 -0.97324,-2.41004 0,-1.41767 0.97324,-2.4573 0.929,-0.99237 2.25615,-0.99237"
       id="path268"
       style="stroke-width:0.914443" />
    <path
       stroke="none"
       fill="#585858"
       d="m 169.31858,-433.92549 q -1.10596,-1.22865 -0.0442,-2.36279 l 4.51231,-4.77283 q 1.10596,-1.22865 2.21192,0 l 4.46807,4.77283 q 1.06171,1.18139 0.0442,2.31553 l -4.5123,4.77284 -0.44239,0.4253 q -0.929,0.51981 -1.72529,-0.37805 l -4.51231,-4.77283"
       id="path270"
       style="stroke-width:0.914443" />
    <path
       stroke="none"
       fill="#ffffff"
       d="m 195.41918,-445.59767 -0.0885,0.0473 -1.94649,0.14176 q -0.929,-0.37804 -1.5041,-1.41767 l -2.83125,-5.15088 q -0.5751,-1.13414 -0.35391,-1.98474 0.26543,-0.85061 1.28291,-1.46493 l 13.97931,-8.64781 q 3.9372,-2.41005 5.6625,0.66158 l 4.06992,7.56093 q 1.1502,2.07925 -0.66357,3.54418 l -2.0792,1.13414 -15.52765,5.57618"
       id="path272"
       style="stroke-width:0.914443" />
    <path
       stroke="none"
       fill="#dbdbdb"
       d="m 195.41918,-445.59767 15.52765,-5.57618 2.0792,-1.13414 0.53086,2.032 q 0.84053,3.40241 -3.8045,3.78046 l -14.33321,0.89786"
       id="path274"
       style="stroke-width:0.914443" />
  </g>
  <g
     id="g4503"
     transform="matrix(-1,0,0,1,103.03267,-16.34093)"
     inkscape:export-filename="/media/jmtstorres/Dados/Projetos/Jogos/CrowdBattler/assets/enemies.png"
     inkscape:export-xdpi="96"
     inkscape:export-ydpi="96">
    <path
       stroke="none"
       fill="#f19cb7"
       d="m 92.6735,387.56805 -0.0442,0.0473 q -11.01534,9.45116 -22.11915,0 -2.21192,-1.89023 -4.42383,0 -11.05958,9.45116 -22.11916,0 -2.30039,-1.93749 -2.61006,-5.05637 -0.30966,-3.11888 1.50411,-5.52893 1.81377,-2.4573 4.7335,-2.83534 2.91972,-0.33079 5.22012,1.60669 2.21191,1.89024 4.42383,0 11.05957,-9.45115 22.11915,0 2.16768,1.89024 4.37959,0.0473 1.19443,-1.03963 2.34463,-1.79572 2.56582,-1.55944 5.39707,-0.75609 2.78702,0.75609 4.29112,3.49693 1.45986,2.69357 0.75205,5.71795 -0.75205,2.97711 -3.27363,4.58381 l -0.5751,0.47255 m -14.90831,-6.04874 q -0.84053,0.51982 -1.10596,1.55944 -0.26543,1.03963 0.22119,1.93749 0.48662,0.89786 1.45987,1.1814 l 1.81377,-0.23628 q 0.84053,-0.51982 1.10596,-1.55944 0.26543,-1.03963 -0.2212,-1.93749 -0.48662,-0.89786 -1.45986,-1.1814 -0.97324,-0.28353 -1.81377,0.23628 m -6.19336,0.66158 q 1.32715,0.3308 2.47734,-0.37804 1.1502,-0.70884 1.45987,-2.07926 0.3539,-1.41767 -0.30967,-2.64632 -0.66358,-1.22865 -1.94649,-1.55944 -1.28291,-0.37805 -2.4331,0.33079 -1.1502,0.70884 -1.50411,2.12651 -0.3539,1.32316 0.30967,2.55181 0.66358,1.22865 1.94649,1.65395 m -23.35783,-3.82771 q -1.32715,0 -2.25615,0.99237 -0.97324,1.03962 -0.97324,2.4573 0,1.37042 0.97324,2.41004 0.929,0.99237 2.25615,0.99237 1.32715,0 2.25616,-0.99237 0.97324,-1.03962 0.97324,-2.41004 0,-1.41768 -0.97324,-2.4573 -0.92901,-0.99237 -2.25616,-0.99237"
       id="path338"
       style="stroke-width:0.914443" />
    <path
       stroke="none"
       fill="#de92ab"
       d="m 71.57183,382.18089 q -1.28291,-0.4253 -1.94649,-1.65395 -0.66357,-1.22865 -0.30967,-2.55181 0.35391,-1.41767 1.50411,-2.12651 1.15019,-0.70884 2.4331,-0.33079 1.28291,0.33079 1.94649,1.55944 0.66357,1.22865 0.30967,2.64632 -0.30967,1.37042 -1.45987,2.07926 -1.15019,0.70884 -2.47734,0.37804 m 6.19336,-0.66158 q 0.84053,-0.51981 1.81377,-0.23628 0.97324,0.28354 1.45986,1.1814 0.48663,0.89786 0.2212,1.93749 -0.26543,1.03962 -1.10596,1.55944 l -1.81377,0.23628 q -0.97325,-0.28354 -1.45987,-1.1814 -0.48662,-0.89786 -0.22119,-1.93749 0.26543,-1.03962 1.10596,-1.55944"
       id="path340"
       style="stroke-width:0.914443" />
    <path
       stroke="none"
       fill="#b77b8e"
       d="m 48.214,378.35318 q 1.32715,0 2.25616,0.99237 0.97324,1.03962 0.97324,2.4573 0,1.37042 -0.97324,2.41004 -0.92901,0.99237 -2.25616,0.99237 -1.32715,0 -2.25615,-0.99237 -0.97324,-1.03962 -0.97324,-2.41004 0,-1.41768 0.97324,-2.4573 0.929,-0.99237 2.25615,-0.99237"
       id="path342"
       style="stroke-width:0.914443" />
  </g>
  <g
     id="g4508"
     transform="matrix(-1,0,0,1,228.96625,-16.34093)"
     inkscape:export-filename="/media/jmtstorres/Dados/Projetos/Jogos/CrowdBattler/assets/enemies.png"
     inkscape:export-xdpi="96"
     inkscape:export-ydpi="96">
    <path
       stroke="none"
       fill="#de92ab"
       d="m 135.9828,379.81811 q 1.15019,0.70883 1.45986,2.07925 0.35391,1.41767 -0.30967,2.64632 -0.66357,1.22865 -1.94648,1.55944 -1.28291,0.37805 -2.43311,-0.33079 -1.15019,-0.70883 -1.5041,-2.12651 -0.35391,-1.32316 0.30967,-2.55181 0.66357,-1.22865 1.94648,-1.65395 1.32715,-0.33079 2.47735,0.37805 m 7.21084,-2.59907 q 0.26543,1.03962 -0.22119,1.93748 -0.48662,0.89786 -1.45986,1.1814 l -1.81377,-0.23628 q -0.84053,-0.51981 -1.10596,-1.55944 -0.26543,-1.03963 0.22119,-1.93749 0.48662,-0.89786 1.45986,-1.18139 0.97325,-0.28354 1.81377,0.23628 0.84053,0.51981 1.10596,1.55944"
       id="path344"
       style="stroke-width:0.914443" />
    <path
       stroke="none"
       fill="#f19cb7"
       d="m 143.19364,377.21904 q -0.26543,-1.03963 -1.10596,-1.55944 -0.84052,-0.51982 -1.81377,-0.23628 -0.97324,0.28353 -1.45986,1.18139 -0.48662,0.89786 -0.22119,1.93749 0.26543,1.03963 1.10596,1.55944 l 1.81377,0.23628 q 0.97324,-0.28354 1.45986,-1.1814 0.48662,-0.89786 0.22119,-1.93748 m 11.98858,-0.89786 q 2.52159,1.60669 3.27364,4.58381 0.70781,3.02437 -0.75205,5.71795 -1.50411,2.74083 -4.29112,3.49693 -2.83125,0.80334 -5.39707,-0.7561 l -2.34463,-1.79572 q -2.21192,-1.84297 -4.37959,0.0473 -11.05958,9.45116 -22.11916,0 -2.21191,-1.89023 -4.42383,0 -2.30039,1.93749 -5.22012,1.6067 -2.91973,-0.37805 -4.7335,-2.83535 -1.81377,-2.41005 -1.5041,-5.52893 l 0.13272,-0.75609 q 0.44238,-2.59907 2.47734,-4.30028 1.59258,-1.37041 3.18516,-2.31553 9.467,-5.7652 18.93399,2.31553 2.21192,1.89024 4.42383,0 11.10382,-9.45115 22.11916,0 l 0.0442,0.0473 0.57509,0.47256 m -19.19942,3.49693 q -1.1502,-0.70884 -2.47735,-0.37805 -1.28291,0.4253 -1.94648,1.65395 -0.66358,1.22865 -0.30967,2.55181 0.35391,1.41768 1.5041,2.12651 1.1502,0.70884 2.43311,0.33079 1.28291,-0.33079 1.94648,-1.55944 0.66358,-1.22865 0.30967,-2.64632 -0.30967,-1.37042 -1.45986,-2.07925 m -23.57902,-0.61433 q -0.929,-0.99237 -2.25615,-0.99237 l -1.06172,0.18902 q -0.66358,0.23628 -1.19443,0.80335 l -0.61934,0.89786 q -0.35391,0.70884 -0.35391,1.51219 0,1.41767 0.97325,2.4573 0.929,0.99237 2.25615,0.99237 1.32715,0 2.25615,-0.99237 0.97324,-1.03963 0.97324,-2.4573 0,-1.37042 -0.97324,-2.41005"
       id="path346"
       style="stroke-width:0.914443" />
    <path
       stroke="none"
       fill="#b77b8e"
       d="m 112.40378,379.20378 q 0.97324,1.03963 0.97324,2.41005 0,1.41767 -0.97324,2.4573 -0.929,0.99237 -2.25615,0.99237 -1.32715,0 -2.25615,-0.99237 -0.97325,-1.03963 -0.97325,-2.4573 0,-0.80335 0.35391,-1.51219 l 0.61934,-0.89786 q 0.53085,-0.56707 1.19443,-0.80335 l 1.06172,-0.18902 q 1.32715,0 2.25615,0.99237"
       id="path348"
       style="stroke-width:0.914443" />
  </g>
  <g
     id="g4823"
     transform="matrix(-1,0,0,1,230.71236,-34.609498)"
     inkscape:export-filename="/media/jmtstorres/Dados/Projetos/Jogos/CrowdBattler/assets/enemies.png"
     inkscape:export-xdpi="96"
     inkscape:export-ydpi="96">
    <path
       stroke="none"
       fill="#bbcbcc"
       d="m 120.10125,426.61676 2.0792,-1.1814 q 0,-0.89786 0.44238,-1.79572 0.79629,-1.32316 2.16768,-1.79572 l 1.68105,-0.4253 q 1.41563,-0.4253 2.69854,0.37805 0.79629,0.51981 1.23867,1.2759 2.25616,-0.23627 4.60079,0.0473 0.44238,-0.8506 1.28291,-1.32316 1.28291,-0.75609 2.69853,-0.37805 l 1.63682,0.47256 q 1.41563,0.4253 2.12344,1.74846 0.48662,0.85061 0.53086,1.84298 2.16768,0.99237 4.06992,2.50456 0.75205,-0.51982 1.63682,-0.51982 1.5041,0.0473 2.52158,1.13414 l 1.23868,1.27591 q 1.01748,1.18139 1.01748,2.69358 -0.0442,0.99237 -0.44239,1.84297 l 1.19444,2.07926 1.10596,2.22102 q 0.88476,-0.0473 1.76953,0.47256 1.23867,0.8506 1.63682,2.31553 l 0.39814,1.74846 q 0.44238,1.55944 -0.30967,2.83535 -0.53086,0.94512 -1.23867,1.37042 l -0.0442,5.00911 1.23867,1.32316 q 0.70782,1.37042 0.30967,2.88261 l -0.44238,1.79572 q -0.35391,1.51218 -1.59258,2.26827 l -1.72529,0.51982 -2.25616,4.30027 q 0.39815,0.80335 0.35391,1.79572 0.0442,1.51219 -0.97324,2.64633 l -1.23868,1.32316 q -0.97324,1.08688 -2.52158,1.08688 l -1.72529,-0.4253 -1.99073,1.32316 -1.99072,1.13414 q 0,0.89786 -0.44238,1.79572 -0.75206,1.37042 -2.16768,1.79572 l -1.68106,0.4253 q -1.37138,0.4253 -2.69853,-0.33079 l -1.1502,-1.27591 q -2.34463,0.23628 -4.7335,-0.0473 -0.48662,0.80334 -1.32715,1.2759 -1.23867,0.80335 -2.6543,0.37805 l -1.63681,-0.47256 q -1.41563,-0.37805 -2.16768,-1.74846 -0.48662,-0.85061 -0.48662,-1.79572 -2.16768,-0.99238 -4.06992,-2.41005 l -1.59258,0.4253 q -1.50411,0 -2.52159,-1.08688 l -1.23867,-1.32316 q -1.01748,-1.08688 -1.01748,-2.74084 0,-0.94511 0.39814,-1.74846 l -1.23867,-2.12651 -1.06172,-2.17377 -1.68105,-0.51981 q -1.28291,-0.75609 -1.63682,-2.31553 l -0.39815,-1.79572 q -0.44238,-1.46493 0.30967,-2.83535 0.44239,-0.8506 1.1502,-1.22865 -0.22119,-2.55181 0,-5.05637 -0.70781,-0.51981 -1.19444,-1.37042 -0.75205,-1.32316 -0.39814,-2.83534 l 0.44238,-1.79572 q 0.39815,-1.51219 1.68106,-2.31554 0.84053,-0.47256 1.68105,-0.47256 0.97325,-2.31553 2.3004,-4.39478 -0.39815,-0.7561 -0.39815,-1.74847 0.0442,-1.55944 1.06172,-2.69358 l 1.23867,-1.2759 q 1.01748,-1.13414 2.47735,-1.08689 0.97324,0 1.72529,0.47256 l 1.94649,-1.37042 m 17.7838,2.50456 q -8.09561,-2.31553 -15.30646,2.12651 -7.25508,4.4893 -9.42276,13.08985 -2.12344,8.64781 2.03497,16.39776 4.1584,7.70269 12.25401,10.01822 8.09561,2.31554 15.30645,-2.12651 7.25508,-4.4893 9.37852,-13.1371 2.16768,-8.60056 -1.99072,-16.3505 -4.1584,-7.7027 -12.25401,-10.01823"
       id="path70"
       style="stroke-width:0.914443" />
    <path
       stroke="none"
       fill="#87a4a6"
       d="m 137.88505,429.12131 q 8.09561,2.31554 12.25401,10.01823 4.1584,7.74995 1.99072,16.3505 -2.12344,8.64781 -9.37852,13.13711 -7.21084,4.44204 -15.30645,2.12651 -8.09561,-2.31553 -12.25401,-10.01823 -4.15841,-7.74994 -2.03497,-16.39775 2.16768,-8.60056 9.42276,-13.08985 7.21085,-4.44205 15.30646,-2.12652"
       id="path72"
       style="stroke-width:0.914443" />
    <path
       stroke="none"
       fill="#647a7b"
       d="m 143.76874,452.41842 q -0.929,0.99237 -2.25615,0.99237 -1.32715,0 -2.25616,-0.99237 -0.97324,-1.03963 -0.97324,-2.41005 0,-1.41767 0.97324,-2.4573 0.92901,-0.99237 2.25616,-0.99237 1.32715,0 2.25615,0.99237 0.97324,1.03963 0.97324,2.4573 0,1.37042 -0.97324,2.41005 m -17.69532,0 q -0.92901,0.99237 -2.25616,0.99237 -1.32714,0 -2.25615,-0.99237 -0.97324,-1.03963 -0.97324,-2.41005 0,-1.41767 0.97324,-2.4573 0.92901,-0.99237 2.25615,-0.99237 1.32715,0 2.25616,0.99237 0.97324,1.03963 0.97324,2.4573 0,1.37042 -0.97324,2.41005"
       id="path74"
       style="stroke-width:0.914443" />
  </g>
  <g
     id="g4818"
     transform="matrix(-1,0,0,1,104.7313,-35.2597)"
     inkscape:export-filename="/media/jmtstorres/Dados/Projetos/Jogos/CrowdBattler/assets/enemies.png"
     inkscape:export-xdpi="96"
     inkscape:export-ydpi="96">
    <path
       stroke="none"
       fill="#bbcbcc"
       d="m 46.22328,438.99777 q -0.35391,-1.55944 0.3539,-2.8826 l 0.88477,-1.6067 q 0.70781,-1.37041 2.12344,-1.74846 0.929,-0.23628 1.76953,0 l 1.54834,-1.84297 1.76953,-1.70121 q -0.22119,-0.89786 0,-1.89023 0.39815,-1.51219 1.63682,-2.31554 l 1.5041,-0.89786 q 1.28291,-0.80335 2.69854,-0.37804 0.88477,0.28353 1.5041,0.89786 2.12344,-0.85061 4.46807,-1.22865 0.22119,-0.94512 0.88477,-1.65396 1.06172,-1.08688 2.52158,-1.08688 h 1.7253 q 1.45986,0 2.47734,1.08688 0.66357,0.70884 0.929,1.65396 2.34463,0.37804 4.55655,1.2759 0.5751,-0.66158 1.45986,-0.94511 1.45987,-0.37805 2.69854,0.4253 l 1.5041,0.89786 q 1.28291,0.80335 1.63682,2.26828 0.22119,0.99237 0.0442,1.93748 l 1.63682,1.65396 1.59257,1.84297 1.81378,-0.0473 q 1.41562,0.47256 2.16767,1.79572 l 0.84053,1.6067 q 0.75205,1.37041 0.35391,2.83534 -0.26543,0.99238 -0.88477,1.65396 0.79629,2.31553 1.19443,4.82009 0.84053,0.23628 1.50411,0.94511 1.01748,1.13414 1.01748,2.69358 v 1.84298 q 0,1.55944 -1.01748,2.64632 -0.66358,0.70884 -1.50411,0.99238 -0.39814,2.4573 -1.15019,4.77283 0.5751,0.66158 0.79629,1.6067 0.39814,1.51218 -0.30967,2.8826 l -0.88477,1.6067 q -0.70781,1.32316 -2.16767,1.74846 l -1.76954,0.0473 -1.59257,1.79572 -1.63682,1.65395 q 0.22119,0.89786 -0.0442,1.89023 -0.35391,1.51219 -1.63682,2.31554 l -1.5041,0.89786 q -1.23867,0.80334 -2.69854,0.37804 l -1.41562,-0.8506 -4.60079,1.2759 -0.929,1.55945 q -1.01748,1.13413 -2.47734,1.13413 h -1.7253 q -1.45986,0 -2.52158,-1.13413 -0.66358,-0.70884 -0.88477,-1.55945 -2.34463,-0.4253 -4.51231,-1.22865 -0.61933,0.56707 -1.45986,0.80335 -1.41563,0.47256 -2.69854,-0.33079 l -1.5041,-0.89786 q -1.23867,-0.80335 -1.63682,-2.36279 -0.26543,-0.94511 -0.0442,-1.84297 l -1.7253,-1.70121 -1.54834,-1.79572 -1.72529,-0.0473 q -1.41563,-0.37805 -2.16768,-1.74846 l -0.84053,-1.6067 q -0.75205,-1.32316 -0.3539,-2.8826 0.22119,-0.89786 0.79629,-1.51219 -0.84053,-2.36279 -1.19444,-4.86734 -0.84053,-0.28354 -1.5041,-0.99238 -1.06172,-1.08688 -1.06172,-2.64632 v -1.84298 q 0,-1.55944 1.06172,-2.69358 0.66357,-0.70883 1.5041,-0.94511 0.35391,-2.50456 1.1502,-4.86735 -0.5751,-0.61432 -0.79629,-1.55944 m 38.75275,-4.30027 q -5.88369,-6.28502 -14.24473,-6.28502 -8.36104,0 -14.28897,6.28502 -5.8837,6.33227 -5.8837,15.26362 0,8.93134 5.8837,15.21636 5.92793,6.33227 14.28897,6.33227 8.36104,0 14.24473,-6.33227 5.92794,-6.28502 5.92794,-15.21636 0,-8.93135 -5.92794,-15.26362"
       id="path76"
       style="stroke-width:0.914443" />
    <path
       stroke="none"
       fill="#87a4a6"
       d="m 84.97603,434.6975 q 5.92794,6.33227 5.92794,15.26362 0,8.93134 -5.92794,15.21636 -5.88369,6.33227 -14.24473,6.33227 -8.36104,0 -14.28897,-6.33227 -5.8837,-6.28502 -5.8837,-15.21636 0,-8.93135 5.8837,-15.26362 5.92793,-6.28502 14.28897,-6.28502 8.36104,0 14.24473,6.28502"
       id="path78"
       style="stroke-width:0.914443" />
    <path
       stroke="none"
       fill="#647a7b"
       d="m 77.32281,447.55107 q 0.929,-0.99237 2.25615,-0.99237 1.32715,0 2.25615,0.99237 0.97325,1.03963 0.97325,2.4573 0,1.37042 -0.97325,2.41005 -0.929,0.99237 -2.25615,0.99237 -1.32715,0 -2.25615,-0.99237 -0.97325,-1.03963 -0.97325,-2.41005 0,-1.41767 0.97325,-2.4573 M 61.88364,446.5587 q 1.32715,0 2.25615,0.99237 0.97324,1.03963 0.97324,2.4573 0,1.37042 -0.97324,2.41005 -0.929,0.99237 -2.25615,0.99237 -1.32715,0 -2.25616,-0.99237 -0.97324,-1.03963 -0.97324,-2.41005 0,-1.41767 0.97324,-2.4573 0.92901,-0.99237 2.25616,-0.99237"
       id="path80"
       style="stroke-width:0.914443" />
  </g>
  <g
     id="g4966"
     transform="matrix(-1,0,0,1,105.08521,-31.02152)"
     inkscape:export-filename="/media/jmtstorres/Dados/Projetos/Jogos/CrowdBattler/assets/enemies.png"
     inkscape:export-xdpi="96"
     inkscape:export-ydpi="96">
    <path
       stroke="none"
       fill="#80be1f"
       d="m 48.96605,497.07513 q 0,-9.30939 8.71495,-9.30939 h 26.80841 q 3.05244,0 4.99893,1.13414 3.71602,2.12651 3.71602,8.17525 v 29.01505 q -0.0885,5.76521 -3.71602,7.84446 -1.94649,1.08688 -4.99893,1.08688 H 57.681 q -8.53799,0 -8.71495,-8.93134 v -29.01505"
       id="path88"
       style="stroke-width:0.914443" />
    <path
       stroke="none"
       fill="#5f8c19"
       d="m 64.13979,506.14824 q 0.97324,1.03963 0.97324,2.4573 0,1.37042 -0.97324,2.41004 -0.929,0.99238 -2.25615,0.99238 -1.32715,0 -2.25616,-0.99238 -0.97324,-1.03962 -0.97324,-2.41004 0,-1.41767 0.97324,-2.4573 0.92901,-0.99237 2.25616,-0.99237 1.32715,0 2.25615,0.99237 m 15.43917,-0.99237 q 1.32715,0 2.25615,0.99237 0.97325,1.03963 0.97325,2.4573 0,1.37042 -0.97325,2.41004 -0.929,0.99238 -2.25615,0.99238 -1.32715,0 -2.25615,-0.99238 -0.97325,-1.03962 -0.97325,-2.41004 0,-1.41767 0.97325,-2.4573 0.929,-0.99237 2.25615,-0.99237"
       id="path90"
       style="stroke-width:0.914443" />
    <path
       stroke="none"
       fill="#5f8c19"
       d="m 63.12231,517.06433 q 0,-0.7561 0.53086,-1.32317 0.53086,-0.56707 1.23867,-0.56707 h 12.38673 q 0.70781,0 1.23867,0.56707 0.53086,0.56707 0.53086,1.32317 0,0.75609 -0.53086,1.32316 -0.53086,0.56707 -1.23867,0.56707 H 64.89184 q -0.70781,0 -1.23867,-0.56707 -0.53086,-0.56707 -0.53086,-1.32316"
       id="path92"
       style="stroke-width:0.914443" />
    <path
       stroke="none"
       fill="#88c626"
       d="m 69.93501,496.08276 q 1.23867,0 2.12344,0.94511 0.88476,0.94512 0.88476,2.26828 0,1.32316 -0.88476,2.26828 -0.88477,0.94511 -2.12344,0.94511 -1.23867,0 -2.12344,-0.94511 -0.88477,-0.94512 -0.88477,-2.26828 0,-1.32316 0.88477,-2.26828 0.88477,-0.94511 2.12344,-0.94511 m -11.81163,-2.55181 q 1.5041,0 2.52159,1.08688 1.06171,1.13414 1.06171,2.74083 0,1.6067 -1.06171,2.69358 -1.01749,1.13414 -2.52159,1.13414 -1.5041,0 -2.56582,-1.13414 -1.01748,-1.08688 -1.01748,-2.69358 0,-1.60669 1.01748,-2.74083 1.06172,-1.08688 2.56582,-1.08688 m 27.78166,27.40835 q 0.97324,1.03963 0.97324,2.4573 0,1.41767 -0.97324,2.41004 -0.92901,1.03963 -2.25616,1.03963 -1.32715,0 -2.30039,-1.03963 -0.929,-0.99237 -0.929,-2.41004 0,-1.41767 0.929,-2.4573 0.97324,-0.99237 2.30039,-0.99237 1.32715,0 2.25616,0.99237 m -7.12237,6.04874 q 0,1.03963 -0.70781,1.79572 -0.70782,0.75609 -1.68106,0.75609 -0.97324,0 -1.68105,-0.75609 -0.70782,-0.75609 -0.70782,-1.79572 0,-1.03963 0.70782,-1.79572 0.70781,-0.75609 1.68105,-0.75609 0.97324,0 1.68106,0.75609 0.70781,0.75609 0.70781,1.79572"
       id="path94"
       style="stroke-width:0.914443" />
  </g>
  <g
     id="g4972"
     transform="matrix(-1,0,0,1,231.01883,-31.02152)"
     inkscape:export-filename="/media/jmtstorres/Dados/Projetos/Jogos/CrowdBattler/assets/enemies.png"
     inkscape:export-xdpi="96"
     inkscape:export-ydpi="96">
    <path
       stroke="none"
       fill="#80be1f"
       d="m 110.89968,497.07513 q 0,-9.30939 8.71495,-9.30939 h 26.80841 q 3.05244,0 4.99893,1.13414 3.71601,2.12651 3.71601,8.17525 v 29.01505 q -0.0885,5.76521 -3.71601,7.84446 -1.94649,1.08688 -4.99893,1.08688 h -26.80841 q -8.538,0 -8.71495,-8.93134 v -29.01505"
       id="path176"
       style="stroke-width:0.914443" />
    <path
       stroke="none"
       fill="#5f8c19"
       d="m 141.51259,505.15587 q 1.32715,0 2.25615,0.99237 0.97324,1.03963 0.97324,2.4573 0,1.37042 -0.97324,2.41004 -0.929,0.99238 -2.25615,0.99238 -1.32715,0 -2.25616,-0.99238 -0.97324,-1.03962 -0.97324,-2.41004 0,-1.41767 0.97324,-2.4573 0.92901,-0.99237 2.25616,-0.99237 m -14.46593,3.44967 q 0,1.37042 -0.97324,2.41004 -0.92901,0.99238 -2.25616,0.99238 -1.32714,0 -2.25615,-0.99238 -0.97324,-1.03962 -0.97324,-2.41004 0,-1.41767 0.97324,-2.4573 0.92901,-0.99237 2.25615,-0.99237 1.32715,0 2.25616,0.99237 0.97324,1.03963 0.97324,2.4573"
       id="path178"
       style="stroke-width:0.914443" />
    <path
       stroke="none"
       fill="#5f8c19"
       d="m 140.45087,518.38749 q -0.53086,0.56707 -1.23867,0.56707 h -12.38673 q -0.70781,0 -1.23867,-0.56707 -0.53086,-0.56707 -0.53086,-1.32316 0,-0.7561 0.53086,-1.32317 0.53086,-0.56707 1.23867,-0.56707 h 12.38673 q 0.70781,0 1.23867,0.56707 0.53086,0.56707 0.53086,1.32317 0,0.75609 -0.53086,1.32316"
       id="path180"
       style="stroke-width:0.914443" />
    <path
       stroke="none"
       fill="#88c626"
       d="m 133.99208,497.02787 q 0.88476,0.94512 0.88476,2.26828 0,1.32316 -0.88476,2.26828 -0.88477,0.94511 -2.12344,0.94511 -1.23868,0 -2.12344,-0.94511 -0.88477,-0.94512 -0.88477,-2.26828 0,-1.32316 0.88477,-2.26828 0.88476,-0.94511 2.12344,-0.94511 1.23867,0 2.12344,0.94511 m -17.51837,0.33079 q 0,-1.60669 1.01748,-2.74083 1.06172,-1.08688 2.56582,-1.08688 1.5041,0 2.52158,1.08688 1.06172,1.13414 1.06172,2.74083 0,1.6067 -1.06172,2.69358 -1.01748,1.13414 -2.52158,1.13414 -1.5041,0 -2.56582,-1.13414 -1.01748,-1.08688 -1.01748,-2.69358 m 20.17266,31.4251 q -0.70781,-0.75609 -0.70781,-1.79572 0,-1.03963 0.70781,-1.79572 0.70782,-0.75609 1.68106,-0.75609 0.97324,0 1.68105,0.75609 0.70782,0.75609 0.70782,1.79572 0,1.03963 -0.70782,1.79572 -0.70781,0.75609 -1.68105,0.75609 -0.97324,0 -1.68106,-0.75609 m 5.70674,-5.38716 q 0,-1.41767 0.92901,-2.4573 0.97324,-0.99237 2.30039,-0.99237 1.32715,0 2.25615,0.99237 0.97325,1.03963 0.97325,2.4573 0,1.41767 -0.97325,2.41004 -0.929,1.03963 -2.25615,1.03963 -1.32715,0 -2.30039,-1.03963 -0.92901,-0.99237 -0.92901,-2.41004"
       id="path182"
       style="stroke-width:0.914443" />
  </g>
  <g
     id="g5148"
     transform="matrix(-1,0,0,1,101.73455,-26.031983)"
     inkscape:export-filename="/media/jmtstorres/Dados/Projetos/Jogos/CrowdBattler/assets/enemies.png"
     inkscape:export-xdpi="96"
     inkscape:export-ydpi="96">
    <path
       stroke="none"
       fill="#585858"
       d="m 46.62142,582.19871 3.36211,-6.37953 q 1.06172,-1.89024 2.87549,-0.7561 l 2.0792,1.27591 q 1.76954,1.08688 0.66358,2.97711 l -3.36211,6.33228 q -1.01748,1.89023 -2.78702,0.8506 l -2.0792,-1.2759 q -1.76953,-1.08689 -0.75205,-3.02437"
       id="path358"
       style="stroke-width:0.914443" />
    <path
       stroke="none"
       fill="#dbdbdb"
       d="m 64.58217,568.54179 q -0.17695,0.80334 -1.15019,1.41767 l -4.68926,2.8826 q -0.97324,0.56707 -1.85801,0.4253 -0.88477,-0.23628 -1.68106,-1.13414 v -0.0472 l -10.396,-12.71181 q -0.88476,-1.08688 -1.23867,-1.98474 -0.88477,-2.07925 1.10596,-3.3079 l 6.76846,-4.25302 q 2.74277,-1.6067 4.95469,2.36278 l 7.78594,14.41302 q 0.5751,1.08688 0.39814,1.93749"
       id="path360"
       style="stroke-width:0.914443" />
    <path
       stroke="none"
       fill="#ffcc00"
       d="m 63.9186,583.14382 q -2.87549,2.12651 -6.59151,2.12651 -4.7335,0.0473 -8.13985,-3.54418 -3.31787,-3.59144 -3.36211,-8.69507 0.0442,-5.10362 3.40635,-8.69506 3.14092,-3.35516 7.43204,-3.54418 l 2.03496,-0.14177 7.07813,0.75609 q 3.2294,0.66158 5.97217,1.89023 -1.59258,10.20725 -7.83018,19.84743 m 15.08526,-14.93283 0.84053,0.89786 q 2.91973,3.44968 3.89297,8.26977 -7.47627,8.08074 -15.39493,13.70417 -1.23867,-1.89023 -1.54834,-4.86734 8.49375,-7.93897 12.20977,-18.00446 m 5.17588,15.40539 q -0.48662,10.01823 -8.6707,10.39627 -2.69854,0.14177 -4.51231,-0.75609 7.29932,-3.54418 13.18301,-9.64018"
       id="path362"
       style="stroke-width:0.914443" />
    <path
       stroke="none"
       fill="#666666"
       d="m 84.17974,583.61638 q -5.88369,6.096 -13.18301,9.64018 -1.68106,-0.70884 -2.6543,-2.17377 7.91866,-5.62343 15.39493,-13.70417 l 0.35391,3.02437 0.0885,3.21339 m -20.26114,-0.47256 q 6.2376,-9.64018 7.83018,-19.84743 l 1.06172,0.51982 0.0885,0.0473 q 3.5833,1.70121 6.10488,4.34753 -3.71602,10.06549 -12.20977,18.00446 l -0.0885,-0.47256 -0.0442,-0.0473 -0.3539,-2.12651 q -0.30967,-1.03962 -0.88477,-1.79572 l -1.5041,1.37042"
       id="path364"
       style="stroke-width:0.914443" />
    <path
       stroke="none"
       fill="#ffffff"
       d="m 75.50904,571.18811 h -0.0442 q -0.92901,0.70884 -1.85801,0.70884 -0.97324,-0.0945 -1.7253,-0.89786 l -3.98144,-4.25302 q -0.84053,-0.89786 -0.79629,-1.74847 0.0442,-0.8506 0.84053,-1.74846 l 11.325,-12.05023 q 3.14092,-3.44967 5.52979,-0.94511 l 5.70674,6.09599 q 1.63682,1.70121 0.26543,3.59144 -0.61934,0.80335 -1.76953,1.6067 l -13.49268,9.64018"
       id="path366"
       style="stroke-width:0.914443" />
    <path
       stroke="none"
       fill="#dbdbdb"
       d="m 75.50904,571.18811 13.49268,-9.64018 q 1.15019,-0.80335 1.76953,-1.6067 l 0.97324,1.74847 q 1.59258,3.07162 -2.74277,4.63106 l -13.49268,4.86735"
       id="path368"
       style="stroke-width:0.914443" />
    <path
       stroke="none"
       fill="#b69100"
       d="m 56.70776,577.6149 q -0.92901,0.99237 -2.25616,0.99237 -1.32715,0 -2.25615,-0.99237 -0.97324,-1.03963 -0.97324,-2.41005 0,-1.41767 0.97324,-2.4573 0.929,-0.99237 2.25615,-0.99237 1.32715,0 2.25616,0.99237 0.97324,1.03963 0.97324,2.4573 0,1.37042 -0.97324,2.41005"
       id="path370"
       style="stroke-width:0.914443" />
  </g>
  <g
     id="g5157"
     transform="matrix(-1,0,0,1,226.13107,-26.031983)"
     inkscape:export-filename="/media/jmtstorres/Dados/Projetos/Jogos/CrowdBattler/assets/enemies.png"
     inkscape:export-xdpi="96"
     inkscape:export-ydpi="96">
    <path
       stroke="none"
       fill="#585858"
       d="m 108.55505,582.19871 3.36211,-6.37953 q 1.06172,-1.89024 2.87549,-0.7561 l 2.0792,1.27591 q 1.76953,1.08688 0.66358,2.97711 l -3.36212,6.33228 q -1.01748,1.89023 -2.78701,0.8506 l -2.0792,-1.2759 q -1.76953,-1.08689 -0.75205,-3.02437"
       id="path372"
       style="stroke-width:0.914443" />
    <path
       stroke="none"
       fill="#dbdbdb"
       d="m 125.49832,567.50216 -2.69854,5.00911 q -0.57509,0.99237 -1.41562,1.37042 l -1.99073,-0.0945 -0.0442,-0.0473 -14.90831,-5.48167 q -1.32715,-0.47256 -1.99073,-1.03963 -1.76953,-1.32316 -0.61933,-3.44967 l 3.89297,-7.32464 q 1.59258,-2.83535 5.39707,-0.61433 l 13.44845,8.36427 q 1.01748,0.66158 1.28291,1.46493 0.17695,0.80335 -0.35391,1.84298"
       id="path374"
       style="stroke-width:0.914443" />
    <path
       stroke="none"
       fill="#ffcc00"
       d="m 125.85223,583.14382 q -2.87549,2.12651 -6.59151,2.12651 -4.7335,0.0473 -8.13985,-3.54418 -3.31787,-3.59144 -3.36211,-8.69507 0.0442,-5.10362 3.40635,-8.69506 3.14092,-3.35516 7.43203,-3.54418 l 2.03497,-0.14177 7.07813,0.75609 q 3.22939,0.66158 5.97217,1.89023 -1.59258,10.20725 -7.83018,19.84743 m 15.08526,-14.93283 0.84053,0.89786 q 2.91972,3.44968 3.89297,8.26977 -7.47628,8.08074 -15.39493,13.70417 -1.23868,-1.89023 -1.54834,-4.86734 8.49375,-7.93897 12.20977,-18.00446 m 5.17588,15.40539 q -0.48662,10.01823 -8.67071,10.39627 -2.69853,0.14177 -4.5123,-0.75609 7.29932,-3.54418 13.18301,-9.64018"
       id="path376"
       style="stroke-width:0.914443" />
    <path
       stroke="none"
       fill="#666666"
       d="m 146.11337,583.61638 q -5.88369,6.096 -13.18301,9.64018 -1.68106,-0.70884 -2.6543,-2.17377 7.91865,-5.62343 15.39493,-13.70417 l 0.3539,3.02437 0.0885,3.21339 m -20.26114,-0.47256 q 6.2376,-9.64018 7.83018,-19.84743 l 1.06172,0.51982 0.0885,0.0473 q 3.58331,1.70121 6.10489,4.34753 -3.71602,10.06549 -12.20977,18.00446 l -0.0885,-0.47256 -0.0442,-0.0473 -0.3539,-2.12651 q -0.30967,-1.03962 -0.88477,-1.79572 l -1.5041,1.37042"
       id="path378"
       style="stroke-width:0.914443" />
    <path
       stroke="none"
       fill="#ffffff"
       d="m 134.8326,571.89695 -0.0442,-0.0473 q -1.10595,0.14177 -1.90224,-0.37805 -0.79629,-0.61432 -1.10596,-1.7012 l -1.45986,-5.81247 q -0.30967,-1.22865 0.13271,-1.93748 0.44238,-0.70884 1.54834,-1.08689 l 15.43917,-4.39478 q 4.33535,-1.27591 5.26436,2.17376 l 2.03496,8.31702 q 0.61934,2.36279 -1.41563,3.26065 l -2.30039,0.4253 -16.19122,1.1814"
       id="path380"
       style="stroke-width:0.914443" />
    <path
       stroke="none"
       fill="#dbdbdb"
       d="m 134.8326,571.89695 16.19122,-1.1814 2.30039,-0.4253 0.0442,2.032 q -0.0885,3.49693 -4.55654,2.50455 l -13.97931,-2.92985"
       id="path382"
       style="stroke-width:0.914443" />
    <path
       stroke="none"
       fill="#b69100"
       d="m 118.64138,577.6149 q -0.929,0.99237 -2.25615,0.99237 -1.32715,0 -2.25615,-0.99237 -0.97325,-1.03963 -0.97325,-2.41005 0,-1.41767 0.97325,-2.4573 0.929,-0.99237 2.25615,-0.99237 1.32715,0 2.25615,0.99237 0.97325,1.03963 0.97325,2.4573 0,1.37042 -0.97325,2.41005"
       id="path384"
       style="stroke-width:0.914443" />
  </g>
  <g
     id="g5494"
     transform="matrix(-1,0,0,1,543.33742,-33.195815)"
     inkscape:export-filename="/media/jmtstorres/Dados/Projetos/Jogos/CrowdBattler/assets/enemies.png"
     inkscape:export-xdpi="96"
     inkscape:export-ydpi="96">
    <path
       stroke="none"
       fill="#f5f5f5"
       d="m 300.40951,154.44009 q 5.17588,-5.52892 12.51944,-5.52892 h 8.84766 q 7.34356,0 12.51944,5.52892 5.17588,5.52893 5.17588,13.37339 v 31.14156 q 0.0442,4.63107 -1.63682,8.36427 v 0.0473 l -4.33535,6.99386 q -3.36211,5.67069 -6.72422,0 l -3.05245,-4.86735 -3.0082,4.86735 q -3.36211,5.67069 -6.72422,0 l -3.00821,-4.86735 -3.0082,4.86735 q -3.36211,5.67069 -6.72422,0 l -4.33536,-6.99386 q -1.94648,-4.01674 -1.68105,-8.41153 v -31.14156 q 0,-7.84446 5.17588,-13.37339"
       id="path520"
       style="stroke-width:0.914443" />
    <path
       stroke="none"
       fill="#9f9f9f"
       d="m 325.35991,168.56957 q 0.97324,1.03963 0.97324,2.4573 0,1.37042 -0.97324,2.41005 -0.929,0.99237 -2.25615,0.99237 -1.32715,0 -2.25616,-0.99237 -0.97324,-1.03963 -0.97324,-2.41005 0,-1.41767 0.97324,-2.4573 0.92901,-0.99237 2.25616,-0.99237 1.32715,0 2.25615,0.99237 m -3.93721,9.78195 q 2.87549,3.07163 2.87549,7.3719 0,1.51219 -0.3539,2.83535 h -18.75705 q -0.3539,-1.32316 -0.3539,-2.83535 0,-4.30027 2.83125,-7.3719 2.87549,-3.02437 6.90118,-3.02437 4.02568,0 6.85693,3.02437 m -18.27042,-4.9146 q -0.97324,-1.03963 -0.97324,-2.41005 0,-1.41767 0.97324,-2.4573 0.92901,-0.99237 2.25616,-0.99237 1.32715,0 2.25615,0.99237 0.97324,1.03963 0.97324,2.4573 0,1.37042 -0.97324,2.41005 -0.929,0.99237 -2.25615,0.99237 -1.32715,0 -2.25616,-0.99237"
       id="path522"
       style="stroke-width:0.914443" />
  </g>
  <g
     id="g5499"
     transform="matrix(-1,0,0,1,669.27453,-33.195815)"
     inkscape:export-filename="/media/jmtstorres/Dados/Projetos/Jogos/CrowdBattler/assets/enemies.png"
     inkscape:export-xdpi="96"
     inkscape:export-ydpi="96">
    <path
       stroke="none"
       fill="#f5f5f5"
       d="m 357.60964,203.96415 q -0.5751,-2.4573 -0.44239,-5.00911 v -31.14156 q 0,-2.31553 0.44239,-4.39479 1.06172,-5.05637 4.73349,-8.9786 5.17589,-5.52892 12.51944,-5.52892 h 8.84767 q 7.34355,0 12.51944,5.52892 5.17588,5.52893 5.17588,13.37339 v 31.14156 q 0.0442,4.63107 -1.63682,8.36427 v 0.0473 l -4.33535,6.99386 q -3.36211,5.67069 -6.72423,0 l -3.05244,-4.86735 -3.0082,4.86735 q -3.36211,5.67069 -6.72423,0 l -3.0082,-4.86735 -3.00821,4.86735 q -3.36211,5.67069 -6.72422,0 l -4.33535,-6.99386 q -0.79629,-1.65395 -1.23867,-3.40242"
       id="path524"
       style="stroke-width:0.914443" />
    <path
       stroke="none"
       fill="#9f9f9f"
       d="m 382.78123,173.43692 q -0.97324,-1.03963 -0.97324,-2.41005 0,-1.41767 0.97324,-2.4573 0.92901,-0.99237 2.25615,-0.99237 1.32715,0 2.25616,0.99237 0.97324,1.03963 0.97324,2.4573 0,1.37042 -0.97324,2.41005 -0.92901,0.99237 -2.25616,0.99237 -1.32714,0 -2.25615,-0.99237 m -13.18301,0 q -0.92901,0.99237 -2.25616,0.99237 -1.32715,0 -2.25615,-0.99237 -0.97324,-1.03963 -0.97324,-2.41005 0,-1.41767 0.97324,-2.4573 0.929,-0.99237 2.25615,-0.99237 1.32715,0 2.25616,0.99237 0.97324,1.03963 0.97324,2.4573 0,1.37042 -0.97324,2.41005"
       id="path526"
       style="stroke-width:0.914443" />
    <path
       stroke="none"
       fill="#9f9f9f"
       d="m 382.78123,176.36678 q 0.70781,0 1.23867,0.56707 0.53086,0.56707 0.53086,1.32316 0,0.75609 -0.53086,1.32316 -0.53086,0.56707 -1.23867,0.56707 h -12.38672 q -0.70782,0 -1.23868,-0.56707 -0.53086,-0.56707 -0.53086,-1.32316 0,-0.75609 0.53086,-1.32316 0.53086,-0.56707 1.23868,-0.56707 h 12.38672"
       id="path528"
       style="stroke-width:0.914443" />
  </g>
  <g
     id="g5483"
     transform="matrix(-1,0,0,1,545.12094,-15.319987)"
     inkscape:export-filename="/media/jmtstorres/Dados/Projetos/Jogos/CrowdBattler/assets/enemies.png"
     inkscape:export-xdpi="96"
     inkscape:export-ydpi="96">
    <path
       stroke="none"
       fill="#bbcbcc"
       d="m 330.8897,55.25021 q 4.24688,4.11125 6.19336,9.21488 0.35391,6.99385 -3.89297,6.85208 h -31.27648 q -5.08741,-0.37804 -4.29112,-6.04874 1.06172,-5.57618 3.58331,-10.01822 1.01748,-1.79572 2.16767,-3.16614 l 1.32715,-1.46493 q 2.96397,-2.69358 6.50303,-2.92986 h 1.01748 0.84053 0.30967 l 1.81377,0.14177 q 5.08741,0.51981 9.33428,2.78809 l 2.43311,1.46493 q 2.03496,1.37042 3.93721,3.16614"
       id="path402"
       style="stroke-width:0.914443" />
    <path
       stroke="none"
       fill="#647a7b"
       d="m 307.97426,61.58248 q 0.97324,1.03963 0.97324,2.4573 0,1.37042 -0.97324,2.41005 -0.92901,0.99237 -2.25616,0.99237 -1.32715,0 -2.25615,-0.99237 -0.97324,-1.03963 -0.97324,-2.41005 0,-1.41767 0.97324,-2.4573 0.929,-0.99237 2.25615,-0.99237 1.32715,0 2.25616,0.99237"
       id="path404"
       style="stroke-width:0.914443" />
    <path
       stroke="none"
       fill="#f3b9cb"
       d="m 298.90541,62.05504 q 0.97324,1.03963 0.97324,2.4573 0,1.37042 -0.97324,2.41005 -0.92901,0.99237 -2.25616,0.99237 -1.32715,0 -2.25615,-0.99237 -0.97324,-1.03963 -0.97324,-2.41005 0,-1.41767 0.97324,-2.4573 0.929,-0.99237 2.25615,-0.99237 1.32715,0 2.25616,0.99237"
       id="path406"
       style="stroke-width:0.914443" />
    <path
       stroke="none"
       fill="#bbcbcc"
       d="m 309.12445,56.10081 q -1.15019,2.17377 -3.09668,0.89786 l -8.00713,-4.9146 q -1.99072,-1.18139 -0.84053,-3.3079 l 4.64502,-8.60056 q 1.10596,-2.07925 3.05245,-0.89786 l 8.05137,4.96186 q 1.99072,1.22865 0.88476,3.30791 l -4.68926,8.55329"
       id="path408"
       style="stroke-width:0.914443" />
    <path
       stroke="none"
       fill="#f3b9cb"
       d="m 343.32066,52.84016 q 0.61934,0.33079 0.88477,0.94512 2.47734,7.84446 -4.99893,14.64929 l -1.10596,0.56707 -0.88476,0.0473 q -1.06172,-0.14177 -1.59258,-1.13414 -0.30967,-0.47256 -0.35391,-1.08689 -0.0442,-0.47255 0.13272,-0.89786 0.17695,-1.13413 1.01748,-1.79571 5.04316,-4.15851 3.98145,-9.49842 -0.13272,-0.61432 0.3539,-1.13414 0.39815,-0.51981 1.19444,-0.75609 l 1.37138,0.0945"
       id="path410"
       style="stroke-width:0.914443" />
  </g>
  <g
     id="g5490"
     transform="matrix(-1,0,0,1,670.582,-15.319643)"
     inkscape:export-filename="/media/jmtstorres/Dados/Projetos/Jogos/CrowdBattler/assets/enemies.png"
     inkscape:export-xdpi="96"
     inkscape:export-ydpi="96">
    <path
       stroke="none"
       fill="#bbcbcc"
       d="m 374.33172,44.38138 1.72529,0.14177 q 4.77774,0.61432 8.75918,3.16613 l 2.25616,1.70121 q 1.94648,1.55944 3.71601,3.59144 3.98145,4.67832 5.79522,10.49078 0.35391,7.98623 -3.62754,7.84446 h -29.37423 q -4.77774,-0.4253 -4.02569,-6.89934 1.01748,-6.37953 3.36211,-11.4359 0.97325,-2.032 2.03496,-3.59144 l 1.23868,-1.70121 q 2.78701,-3.07162 6.10488,-3.3079 h 0.97325 0.79629 0.26543"
       id="path412"
       style="stroke-width:0.914443" />
    <path
       stroke="none"
       fill="#647a7b"
       d="m 369.90788,61.58248 q 0.97325,1.03963 0.97325,2.4573 0,1.37042 -0.97325,2.41005 -0.929,0.99237 -2.25615,0.99237 -1.32715,0 -2.25615,-0.99237 -0.97325,-1.03963 -0.97325,-2.41005 0,-1.41767 0.97325,-2.4573 0.929,-0.99237 2.25615,-0.99237 1.32715,0 2.25615,0.99237"
       id="path414"
       style="stroke-width:0.914443" />
    <path
       stroke="none"
       fill="#f3b9cb"
       d="m 360.83903,62.05504 q 0.97324,1.03963 0.97324,2.4573 0,1.37042 -0.97324,2.41005 -0.929,0.99237 -2.25615,0.99237 -1.32715,0 -2.25616,-0.99237 -0.97324,-1.03963 -0.97324,-2.41005 0,-1.41767 0.97324,-2.4573 0.92901,-0.99237 2.25616,-0.99237 1.32715,0 2.25615,0.99237"
       id="path416"
       style="stroke-width:0.914443" />
    <path
       stroke="none"
       fill="#bbcbcc"
       d="m 368.84617,56.10081 q -1.1502,2.17377 -3.09669,0.89786 l -8.00713,-4.9146 q -1.99072,-1.18139 -0.84053,-3.3079 l 4.64502,-8.60056 q 1.10596,-2.07925 3.05245,-0.89786 l 8.05137,4.96186 q 1.99072,1.22865 0.88477,3.30791 l -4.68926,8.55329"
       id="path418"
       style="stroke-width:0.914443" />
    <path
       stroke="none"
       fill="#f3b9cb"
       d="m 405.16581,54.82491 q 0.48663,0.51981 0.61934,1.13413 0.48662,8.26977 -8.36104,12.80632 l -1.19443,0.23628 -0.92901,-0.23628 q -0.97324,-0.4253 -1.23867,-1.51218 -0.17695,-0.56707 -0.0885,-1.13414 l 0.35391,-0.85061 q 0.48662,-1.03962 1.41562,-1.41767 5.8837,-2.64632 6.14913,-8.08074 0.0442,-0.66158 0.61934,-1.03963 0.48662,-0.37804 1.37138,-0.37804 0.66358,0 1.28291,0.47256"
       id="path420"
       style="stroke-width:0.914443" />
  </g>
  <g
     id="g5931"
     transform="matrix(-1,0,0,1,492.33274,-156.18642)"
     inkscape:export-filename="/media/jmtstorres/Dados/Projetos/Jogos/CrowdBattler/assets/enemies.png"
     inkscape:export-xdpi="96"
     inkscape:export-ydpi="96">
    <path
       stroke="none"
       fill="#e86a17"
       d="m 246.59139,410.59729 q 2.0792,-8.74232 9.33428,-13.37339 7.21084,-4.67832 15.35069,-2.4573 8.13985,2.22103 12.51944,9.97097 4.33536,7.7027 2.3004,16.39776 -4.11417,17.39013 0,34.82751 6.50303,27.92817 0,55.90359 -2.38887,10.15999 -1.99073,20.31999 h -40.74348 q -0.39814,-15.45264 3.2294,-30.85803 4.06992,-17.43738 0,-34.82751 -6.54727,-27.97542 0,-55.90359"
       id="path134"
       style="stroke-width:0.914443" />
    <path
       stroke="none"
       fill="#af4e0e"
       d="m 256.72196,417.30761 q 1.32715,0 2.25615,0.99237 0.97325,1.03963 0.97325,2.4573 0,1.37042 -0.97325,2.41005 -0.929,0.99237 -2.25615,0.99237 -1.32715,0 -2.25615,-0.99237 -0.97325,-1.03963 -0.97325,-2.41005 0,-1.41767 0.97325,-2.4573 0.929,-0.99237 2.25615,-0.99237 m 13.58116,3.44967 q 0,-1.41767 0.97324,-2.4573 0.92901,-0.99237 2.25616,-0.99237 1.32715,0 2.25615,0.99237 0.97324,1.03963 0.97324,2.4573 0,1.37042 -0.97324,2.41005 -0.929,0.99237 -2.25615,0.99237 -1.32715,0 -2.25616,-0.99237 -0.97324,-1.03963 -0.97324,-2.41005 m -10.57295,10.34902 q -0.70782,0 -1.23868,-0.56707 -0.53086,-0.56707 -0.53086,-1.32316 0,-0.75609 0.53086,-1.32316 0.53086,-0.56707 1.23868,-0.56707 h 11.50195 q 0.70782,0 1.23868,0.56707 0.53086,0.56707 0.53086,1.32316 0,0.75609 -0.53086,1.32316 -0.53086,0.56707 -1.23868,0.56707 h -11.50195"
       id="path136"
       style="stroke-width:0.914443" />
    <path
       stroke="none"
       fill="#f3741f"
       d="m 255.70448,403.93423 q 1.06172,-1.08689 2.56582,-1.08689 1.5041,0 2.52158,1.08689 1.06172,1.13413 1.06172,2.74083 0,1.6067 -1.06172,2.69358 -1.01748,1.13414 -2.52158,1.13414 -1.5041,0 -2.56582,-1.13414 -1.01748,-1.08688 -1.01748,-2.69358 0,-1.6067 1.01748,-2.74083 m 9.59971,3.35516 q 0.88477,-0.94512 2.12344,-0.94512 1.23867,0 2.12344,0.94512 0.88477,0.94511 0.88477,2.26827 0,1.32317 -0.88477,2.26828 -0.88477,0.94512 -2.12344,0.94512 -1.23867,0 -2.12344,-0.94512 -0.88476,-0.94511 -0.88476,-2.26828 0,-1.32316 0.88476,-2.26827 m 14.64288,38.65523 q 0,1.41767 -0.97324,2.41004 -0.92901,1.03963 -2.25616,1.03963 -1.32714,0 -2.30039,-1.03963 -0.929,-0.99237 -0.929,-2.41004 0,-1.41768 0.929,-2.45731 0.97325,-0.99237 2.30039,-0.99237 1.32715,0 2.25616,0.99237 0.97324,1.03963 0.97324,2.45731 m -8.09561,3.59144 q 0,1.03962 -0.70781,1.79571 -0.70781,0.7561 -1.68106,0.7561 -0.97324,0 -1.68105,-0.7561 -0.70782,-0.75609 -0.70782,-1.79571 0,-1.03963 0.70782,-1.79572 0.70781,-0.7561 1.68105,-0.7561 0.97325,0 1.68106,0.7561 0.70781,0.75609 0.70781,1.79572 m -2.30039,42.81373 q 0.88477,0.94512 0.88477,2.26828 0,1.32316 -0.88477,2.26828 -0.88477,0.94511 -2.12344,0.94511 -1.23867,0 -2.12344,-0.94511 -0.88476,-0.94512 -0.88476,-2.26828 0,-1.32316 0.88476,-2.26828 0.88477,-0.94511 2.12344,-0.94511 1.23867,0 2.12344,0.94511 m -10.9711,-3.96948 q -1.23867,0 -2.12344,-0.94512 -0.88477,-0.94511 -0.88477,-2.26828 0,-1.32316 0.88477,-2.26827 0.88477,-0.94512 2.12344,-0.94512 1.23867,0 2.12344,0.94512 0.88476,0.94511 0.88476,2.26827 0,1.32317 -0.88476,2.26828 -0.88477,0.94512 -2.12344,0.94512 m 0.61934,13.75143 q 0,1.6067 -1.06172,2.69358 -1.01748,1.13414 -2.52159,1.13414 -1.5041,0 -2.56582,-1.13414 -1.01748,-1.08688 -1.01748,-2.69358 0,-1.6067 1.01748,-2.74083 1.06172,-1.08689 2.56582,-1.08689 1.50411,0 2.52159,1.08689 1.06172,1.13413 1.06172,2.74083"
       id="path138"
       style="stroke-width:0.914443" />
  </g>
  <g
     id="g5936"
     transform="matrix(-1,0,0,1,621.91602,-156.18642)"
     inkscape:export-filename="/media/jmtstorres/Dados/Projetos/Jogos/CrowdBattler/assets/enemies.png"
     inkscape:export-xdpi="96"
     inkscape:export-ydpi="96">
    <path
       stroke="none"
       fill="#e86a17"
       d="m 326.97239,394.7666 q 8.13985,-2.22102 15.35069,2.4573 7.25508,4.63107 9.33428,13.37339 6.54727,27.92817 0,55.90359 -4.06992,17.39013 0,34.82751 3.62754,15.40539 3.2294,30.85803 h -40.74348 q 0.39815,-10.16 -1.99072,-20.31999 -6.50303,-27.97542 0,-55.90359 4.11416,-17.43738 0,-34.82751 -2.03497,-8.69506 2.30039,-16.39776 4.37959,-7.74994 12.51944,-9.97097"
       id="path140"
       style="stroke-width:0.914443" />
    <path
       stroke="none"
       fill="#af4e0e"
       d="m 320.8675,420.75728 q 0,-1.41767 0.97325,-2.4573 0.929,-0.99237 2.25615,-0.99237 1.32715,0 2.25615,0.99237 0.97325,1.03963 0.97325,2.4573 0,1.37042 -0.97325,2.41005 -0.929,0.99237 -2.25615,0.99237 -1.32715,0 -2.25615,-0.99237 -0.97325,-1.03963 -0.97325,-2.41005 m 4.46807,8.45879 q 0,-0.75609 0.53086,-1.32316 0.53086,-0.56707 1.23867,-0.56707 h 11.50196 q 0.70782,0 1.23868,0.56707 0.53086,0.56707 0.53086,1.32316 0,0.75609 -0.53086,1.32316 -0.53086,0.56707 -1.23868,0.56707 H 327.1051 q -0.70781,0 -1.23867,-0.56707 -0.53086,-0.56707 -0.53086,-1.32316 m 15.57188,-11.90846 q 1.32715,0 2.25616,0.99237 0.97324,1.03963 0.97324,2.4573 0,1.37042 -0.97324,2.41005 -0.92901,0.99237 -2.25616,0.99237 -1.32714,0 -2.25615,-0.99237 -0.97324,-1.03963 -0.97324,-2.41005 0,-1.41767 0.97324,-2.4573 0.92901,-0.99237 2.25615,-0.99237"
       id="path142"
       style="stroke-width:0.914443" />
    <path
       stroke="none"
       fill="#f3741f"
       d="m 327.45901,406.67506 q 0,1.6067 -1.06172,2.69358 -1.01748,1.13414 -2.52158,1.13414 -1.5041,0 -2.56582,-1.13414 -1.01749,-1.08688 -1.01749,-2.69358 0,-1.6067 1.01749,-2.74083 1.06172,-1.08689 2.56582,-1.08689 1.5041,0 2.52158,1.08689 1.06172,1.13413 1.06172,2.74083 m 3.45059,5.15088 q -0.88477,-0.94511 -0.88477,-2.26828 0,-1.32316 0.88477,-2.26827 0.88476,-0.94512 2.12344,-0.94512 1.23867,0 2.12344,0.94512 0.88476,0.94511 0.88476,2.26827 0,1.32317 -0.88476,2.26828 -0.88477,0.94512 -2.12344,0.94512 -1.23868,0 -2.12344,-0.94512 m 18.18194,34.11868 q 0,1.41767 -0.97324,2.41004 -0.92901,1.03963 -2.25615,1.03963 -1.32715,0 -2.3004,-1.03963 -0.929,-0.99237 -0.929,-2.41004 0,-1.41768 0.929,-2.45731 0.97325,-0.99237 2.3004,-0.99237 1.32714,0 2.25615,0.99237 0.97324,1.03963 0.97324,2.45731 m -12.87335,3.59144 q 0,-1.03963 0.70782,-1.79572 0.70781,-0.7561 1.68105,-0.7561 0.97325,0 1.68106,0.7561 0.70781,0.75609 0.70781,1.79572 0,1.03962 -0.70781,1.79571 -0.70781,0.7561 -1.68106,0.7561 -0.97324,0 -1.68105,-0.7561 -0.70782,-0.75609 -0.70782,-1.79571 m -6.72422,48.2954 q -1.23867,0 -2.12344,-0.94511 -0.88476,-0.94512 -0.88476,-2.26828 0,-1.32316 0.88476,-2.26828 0.88477,-0.94511 2.12344,-0.94511 1.23867,0 2.12344,0.94511 0.88477,0.94512 0.88477,2.26828 0,1.32316 -0.88477,2.26828 -0.88477,0.94511 -2.12344,0.94511 m -8.84766,-9.45115 q -1.23867,0 -2.12344,-0.94512 -0.88476,-0.94511 -0.88476,-2.26828 0,-1.32316 0.88476,-2.26827 0.88477,-0.94512 2.12344,-0.94512 1.23867,0 2.12344,0.94512 0.88477,0.94511 0.88477,2.26827 0,1.32317 -0.88477,2.26828 -0.88477,0.94512 -2.12344,0.94512 m -5.52979,11.0106 q 1.06172,-1.08689 2.56582,-1.08689 1.50411,0 2.52159,1.08689 1.06172,1.13413 1.06172,2.74083 0,1.6067 -1.06172,2.69358 -1.01748,1.13414 -2.52159,1.13414 -1.5041,0 -2.56582,-1.13414 -1.01748,-1.08688 -1.01748,-2.69358 0,-1.6067 1.01748,-2.74083"
       id="path144"
       style="stroke-width:0.914443" />
  </g>
  <g
     id="g6026"
     transform="matrix(-0.87955189,0,0,1,460.7001,-210.13685)"
     inkscape:export-filename="/media/jmtstorres/Dados/Projetos/Jogos/CrowdBattler/assets/enemies.png"
     inkscape:export-xdpi="96"
     inkscape:export-ydpi="96">
    <path
       stroke="none"
       fill="#775e00"
       d="m 265.61386,633.36105 0.97324,16.7758 h -7.69746 l 1.90224,-16.7758 h 4.82198"
       id="path434"
       style="stroke-width:0.914443" />
    <path
       stroke="none"
       fill="#775e00"
       d="m 242.69842,610.72553 q 0.53086,-3.54419 4.5123,-2.50456 l 17.51837,10.96334 q 1.59258,0.70884 1.85801,2.31554 l 0.0442,0.33079 q 0.61934,3.11888 -1.19443,4.11125 -2.25616,0.99237 -4.46807,-0.56707 l -12.82911,-9.97097 2.87549,34.733 h -11.01534 l 2.69854,-39.41132"
       id="path436"
       style="stroke-width:0.914443" />
    <path
       stroke="none"
       fill="#775e00"
       d="m 277.5582,633.36105 h 6.90118 l 2.69853,16.7758 h -11.01533 l 1.41562,-16.7758"
       id="path438"
       style="stroke-width:0.914443" />
    <path
       stroke="none"
       fill="#c9a000"
       d="m 286.36162,617.43585 q 5.79522,6.09599 4.33536,11.8612 -1.41563,5.76521 -9.29005,7.89172 -6.67998,1.79572 -14.5544,0.14176 l -0.70781,-0.14176 -1.45986,-0.37805 -0.79629,-0.18902 -0.88477,-0.28354 q -5.08741,-1.65395 -7.69747,-6.61581 -2.83125,-5.19813 -1.41562,-10.96334 1.45986,-5.7652 6.37031,-8.78958 1.76954,-1.08688 3.67178,-1.65395 2.91973,-0.70883 6.10489,0.0473 l 0.88477,0.28353 0.79629,0.18903 0.26543,0.0945 1.54834,0.56707 q 4.42383,1.51218 7.91865,3.82772 2.69854,1.89023 4.91045,4.11125"
       id="path440"
       style="stroke-width:0.914443" />
    <path
       stroke="none"
       fill="#917300"
       d="m 263.97704,622.11417 q 0.66358,1.27591 0.35391,2.64632 -0.35391,1.32317 -1.54834,2.07926 -1.1502,0.70884 -2.43311,0.33079 -1.28291,-0.37805 -1.94648,-1.55944 -0.66358,-1.32316 -0.30967,-2.64632 0.30967,-1.37042 1.5041,-2.07926 1.10596,-0.70884 2.38887,-0.33079 1.28291,0.37805 1.99072,1.55944"
       id="path442"
       style="stroke-width:0.914443" />
    <path
       stroke="none"
       fill="#775e00"
       d="m 275.61172,621.49985 q 0.26543,-1.6067 1.85801,-2.31554 l 17.51836,-10.96334 q 3.98145,-1.03963 4.51231,2.50456 l 2.69854,39.41132 H 291.1836 l 2.87549,-34.733 -12.82911,9.97097 q -2.21191,1.55944 -4.46807,0.56707 -1.81377,-0.99237 -1.19443,-4.11125 l 0.0442,-0.33079"
       id="path444"
       style="stroke-width:0.914443" />
    <path
       stroke="none"
       fill="#c9a000"
       d="m 250.48436,641.111 q -0.929,0 -1.59258,-0.66159 -0.61934,-0.66158 -0.66357,-1.65395 -0.2212,-9.59292 6.54727,-14.27124 l 3.9372,6.61581 q -6.19336,-0.18903 -6.06064,7.56092 0,0.99237 -0.61934,1.70121 -0.61934,0.70884 -1.54834,0.70884"
       id="path446"
       style="stroke-width:0.914443" />
    <path
       stroke="none"
       fill="#c9a000"
       d="m 264.77333,628.87175 q 1.7253,8.41153 -4.82197,15.02734 -0.66358,0.66158 -1.50411,0.70883 -0.929,-0.0472 -1.59257,-0.75609 -0.66358,-0.70884 -0.66358,-1.70121 0.0442,-0.99237 0.70781,-1.65395 5.26436,-5.3399 0.75205,-9.92371 l 7.12237,-1.70121"
       id="path448"
       style="stroke-width:0.914443" />
  </g>
  <g
     id="g6036"
     transform="matrix(-0.87955189,0,0,1,599.12579,-210.13685)"
     inkscape:export-filename="/media/jmtstorres/Dados/Projetos/Jogos/CrowdBattler/assets/enemies.png"
     inkscape:export-xdpi="96"
     inkscape:export-ydpi="96">
    <path
       stroke="none"
       fill="#775e00"
       d="m 345.24281,628.63547 0.97324,16.7758 h -7.69746 l 1.90224,-16.7758 h 4.82198"
       id="path452"
       style="stroke-width:0.914443" />
    <path
       stroke="none"
       fill="#775e00"
       d="m 346.21605,621.49985 0.0442,0.33079 q 0.61934,3.11888 -1.19443,4.11125 -2.25616,0.99237 -4.46807,-0.56707 l -12.82911,-9.97097 2.87549,34.733 h -11.01534 l 2.69854,-39.41132 q 0.53086,-3.54419 4.5123,-2.50456 l 17.51837,10.96334 q 1.59258,0.70884 1.85801,2.31554"
       id="path454"
       style="stroke-width:0.914443" />
    <path
       stroke="none"
       fill="#775e00"
       d="m 357.18715,633.36105 h 6.90118 l 2.69853,16.7758 h -11.01533 l 1.41562,-16.7758"
       id="path456"
       style="stroke-width:0.914443" />
    <path
       stroke="none"
       fill="#c9a000"
       d="m 350.55141,608.64627 0.79628,0.18903 0.26543,0.0945 1.54835,0.56707 q 4.42383,1.51218 7.91865,3.82772 2.69854,1.89023 4.91045,4.11125 5.79522,6.09599 4.33536,11.8612 -1.41563,5.76521 -9.29005,7.89172 -6.67998,1.79572 -14.5544,0.14176 l -0.70781,-0.14176 -1.45987,-0.37805 -0.79629,-0.18902 -0.88476,-0.28354 q -5.08741,-1.65395 -7.69747,-6.61581 -2.83125,-5.19813 -1.41562,-10.96334 1.45986,-5.7652 6.37031,-8.78958 1.76954,-1.08688 3.67178,-1.65395 2.91973,-0.70883 6.10489,0.0473 l 0.88477,0.28353"
       id="path458"
       style="stroke-width:0.914443" />
    <path
       stroke="none"
       fill="#917300"
       d="m 343.60599,622.11417 q 0.66358,1.27591 0.35391,2.64632 -0.35391,1.32317 -1.54834,2.07926 -1.1502,0.70884 -2.43311,0.33079 -1.28291,-0.37805 -1.94648,-1.55944 -0.66358,-1.32316 -0.30967,-2.64632 0.30967,-1.37042 1.5041,-2.07926 1.10596,-0.70884 2.38887,-0.33079 1.28291,0.37805 1.99072,1.55944"
       id="path460"
       style="stroke-width:0.914443" />
    <path
       stroke="none"
       fill="#775e00"
       d="m 355.15219,621.59436 q 0.17695,-1.65396 1.72529,-2.78809 l 16.54513,-15.4999 q 3.84873,-2.07925 4.64502,1.32316 l 5.22012,38.60798 -10.88262,2.8826 0.53086,-35.39458 -11.98858,13.23162 q -2.0792,2.12651 -4.33536,1.74846 -1.85801,-0.51981 -1.45986,-3.78046 v -0.33079"
       id="path462"
       style="stroke-width:0.914443" />
    <path
       stroke="none"
       fill="#c9a000"
       d="m 327.85715,638.79546 q -0.22119,-9.59292 6.54727,-14.27124 l 3.93721,6.61581 q -6.19336,-0.18903 -6.06064,7.56092 0,0.99237 -0.61934,1.70121 -0.61934,0.70884 -1.54834,0.70884 -0.92901,0 -1.59258,-0.66159 -0.61934,-0.66158 -0.66358,-1.65395"
       id="path464"
       style="stroke-width:0.914443" />
    <path
       stroke="none"
       fill="#c9a000"
       d="m 336.52786,640.49667 q 5.26436,-5.3399 0.75205,-9.92371 l 7.12237,-1.70121 q 1.72529,8.41153 -4.82197,15.02734 -0.66358,0.66158 -1.50411,0.70883 -0.929,-0.0472 -1.59258,-0.75609 -0.66357,-0.70884 -0.66357,-1.70121 0.0442,-0.99237 0.70781,-1.65395"
       id="path466"
       style="stroke-width:0.914443" />
  </g>
  <g
     id="g6122"
     transform="matrix(-0.87955189,0,0,1,730.34265,-210.13685)"
     inkscape:export-filename="/media/jmtstorres/Dados/Projetos/Jogos/CrowdBattler/assets/enemies.png"
     inkscape:export-xdpi="96"
     inkscape:export-ydpi="96">
    <path
       stroke="none"
       fill="#775e00"
       d="m 406.91101,601.60516 q 1.37138,-3.16614 4.77773,-0.47256 l 13.40421,18.19348 q 1.28291,1.37042 1.10596,3.02437 l -0.0442,0.33079 q -0.22119,3.26065 -2.12344,3.44967 -2.34463,-0.0473 -4.02569,-2.50455 l -9.29004,-15.16911 -6.2376,34.63849 -10.17481,-4.77284 12.60792,-36.71774"
       id="path470"
       style="stroke-width:0.914443" />
    <path
       stroke="none"
       fill="#c9a000"
       d="m 425.13719,605.90544 q 2.96396,-0.37805 6.06065,0.75609 l 0.84052,0.37805 0.75205,0.23628 0.26543,0.14176 1.45987,0.7561 q 4.29111,2.03199 7.47627,4.77283 2.52159,2.22102 4.42383,4.67832 5.13165,6.75758 3.09668,12.33376 -2.03496,5.52893 -10.08633,6.71032 -6.8127,0.94512 -14.46593,-1.60669 l -0.70781,-0.23628 -1.41562,-0.56707 -0.75206,-0.28354 -0.84052,-0.37804 q -4.91046,-2.26828 -6.94542,-7.46642 -2.30039,-5.57618 -0.26543,-11.10511 2.0792,-5.52892 7.25509,-7.98622 1.90224,-0.85061 3.84873,-1.13414"
       id="path474"
       style="stroke-width:0.914443" />
    <path
       stroke="none"
       fill="#917300"
       d="m 422.2617,618.00292 q 1.23867,0.51981 1.81377,1.79572 0.48662,1.37042 0.0885,2.64632 -0.48662,1.27591 -1.76953,1.89023 l -2.47734,0.0473 q -1.23867,-0.56707 -1.76953,-1.79572 -0.53086,-1.41767 -0.0442,-2.64633 0.48662,-1.32316 1.72529,-1.89023 l 2.43311,-0.0472"
       id="path476"
       style="stroke-width:0.914443" />
    <path
       stroke="none"
       fill="#775e00"
       d="m 434.86961,621.49985 q 0.26543,-1.6067 1.85801,-2.31554 l 17.51837,-10.96334 q 3.98145,-1.03963 4.51231,2.50456 l 2.69854,39.41132 H 450.4415 l 2.87549,-34.733 -12.82911,9.97097 q -2.21192,1.55944 -4.46807,0.56707 -1.81377,-0.99237 -1.19443,-4.11125 l 0.0442,-0.33079"
       id="path478"
       style="stroke-width:0.914443" />
  </g>
</svg>
